<svg width="48" height="48" viewBox="0 0 48 48" fill="none" xmlns="http://www.w3.org/2000/svg">
<path d="M35.4697 34.7405C35.1276 34.5573 34.7013 34.6859 34.5179 35.0282C34.2201 35.584 33.8755 36.1131 33.491 36.6108C32.6092 35.4961 31.3665 34.6708 29.9065 34.3102L26.4228 33.4494V30.5489C27.5116 29.9095 28.547 29.0735 29.464 28.073C29.7264 27.7867 29.707 27.342 29.4207 27.0796C29.1345 26.8172 28.6898 26.8366 28.4272 27.1229C26.4697 29.2587 23.8315 30.5855 21.5421 30.5855C20.2504 30.5855 19.0068 30.2349 17.8591 29.6349C17.7674 29.5439 17.6507 29.4784 17.5203 29.4488C14.9546 27.974 12.9089 25.2619 11.9452 22.5025C15.9094 21.718 19.1494 19.4676 21.219 17.6567C22.9954 16.1025 24.5695 14.2779 25.6597 12.5514C26.2818 16.2785 28.0189 19.8387 31.4997 21.2662C31.1908 22.5593 30.707 23.779 30.0581 24.8991C29.8634 25.2351 29.978 25.6654 30.3139 25.86C30.65 26.0547 31.0801 25.94 31.2747 25.6041C31.977 24.392 32.5032 23.0762 32.8447 21.6839C33.1809 21.7594 33.5263 21.8173 33.8819 21.8556C34.2687 21.8979 34.6147 21.6177 34.6562 21.2317C34.6977 20.8456 34.4183 20.4989 34.0323 20.4574C33.3877 20.3881 32.7835 20.2481 32.2202 20.0378C32.2197 20.0376 32.2193 20.0374 32.2188 20.0373C32.1388 20.0074 32.0598 19.9762 31.9815 19.9435C31.981 19.9433 31.9805 19.943 31.9799 19.9428C29.7338 19.0042 28.3933 16.9924 27.6236 14.6728C27.6197 14.661 27.6157 14.6492 27.6118 14.6373C26.8458 12.3077 26.8325 10.1528 26.8325 10.1304C26.8325 9.79257 26.5919 9.50195 26.2596 9.43913C25.9267 9.37623 25.5978 9.55867 25.4744 9.87338C23.838 14.0462 17.6592 20.2912 10.9349 21.2488C10.9297 21.2496 10.9246 21.251 10.9194 21.2519C10.3357 21.3336 9.73801 21.3794 9.12724 21.3794C8.73893 21.3794 8.42412 21.6941 8.42412 22.0825C8.42412 22.4709 8.73893 22.7857 9.12724 22.7857C9.5988 22.7857 10.0668 22.7608 10.5307 22.714C11.5977 26.0528 13.5334 28.1782 15.0099 29.3916C15.5384 29.8258 16.0924 30.2109 16.6609 30.5434V33.4395L13.1338 34.3107C12.7072 34.4163 12.2971 34.5621 11.9057 34.7464V30.415C11.9057 29.1977 10.4227 27.9097 9.15283 27.1766C8.27168 26.6678 7.35294 26.3249 6.56591 26.2109C5.21068 26.0149 4.6779 26.5562 4.4799 26.8985C4.36524 27.0982 4.30712 27.3222 4.30712 27.5641V36.5926C3.75962 36.8541 3.37947 37.4118 3.37947 38.0579V41.3485C3.37947 41.7369 3.69428 42.0516 4.08259 42.0516C4.4709 42.0516 4.78571 41.7369 4.78571 41.3485V40.6195H11.4269V46.3753C11.4269 46.4958 11.3289 46.5937 11.2085 46.5937H5.00415C4.88368 46.5937 4.78571 46.4958 4.78571 46.3753V44.161C4.78571 43.7725 4.4709 43.4578 4.08259 43.4578C3.69428 43.4578 3.37947 43.7725 3.37947 44.161V46.3753C3.37947 47.2712 4.10828 48 5.00415 48H11.2085C12.1043 48 12.8331 47.2712 12.8331 46.3753V44.4784H34.4095C34.6037 44.4784 34.7892 44.3981 34.9222 44.2566C35.0551 44.115 35.1234 43.9248 35.1113 43.7311L34.8938 40.2821C34.84 39.4273 34.6244 38.6155 34.2763 37.8774C34.843 37.2034 35.3407 36.4708 35.7578 35.6924C35.9408 35.35 35.812 34.9238 35.4697 34.7405ZM10.4939 30.3703C10.2141 30.4724 9.15949 30.3925 7.76178 29.5854C6.40448 28.8018 5.77823 27.9397 5.71814 27.6093C6.92638 27.1686 10.3266 29.3879 10.4939 30.3703ZM5.71317 29.85C6.13879 30.2184 6.61176 30.5453 7.05857 30.8032C8.02203 31.3595 9.40417 31.9141 10.4993 31.7936V36.4328H5.71308L5.71317 29.85ZM11.4267 39.2128H4.78543V38.0575C4.78543 37.937 4.8834 37.8391 5.00386 37.8391C10.7326 37.8393 11.1747 37.8393 11.2011 37.8393C11.2017 37.8393 11.2021 37.8393 11.2024 37.8393C11.2036 37.8393 11.2048 37.8391 11.206 37.8391H11.2083C11.3288 37.8391 11.4267 37.937 11.4267 38.0575V39.2128ZM12.8329 43.0721V39.9196C12.8329 39.9183 12.8331 39.9172 12.8331 39.9159C12.8331 39.9146 12.8329 39.9136 12.8329 39.9122V38.0575C12.8329 37.4114 12.4529 36.854 11.9054 36.5923V36.3528C12.3849 36.0425 12.9098 35.8143 13.4711 35.6753L17.2174 34.75C17.7176 34.6265 18.0669 34.1803 18.0669 33.6653V31.2453C19.2328 31.7309 20.4205 31.9916 21.542 31.9916C22.6798 31.9916 23.8616 31.7327 25.0164 31.252V33.6756C25.0164 34.1898 25.3653 34.6357 25.866 34.7603L29.5691 35.6753C30.9596 36.0188 32.0996 36.8977 32.7876 38.0686C32.8057 38.1087 32.8277 38.1473 32.8536 38.184C33.2166 38.84 33.4403 39.5822 33.4899 40.3704L33.6603 43.0721H12.8329V43.0721Z" fill="#242729"/>
<path d="M38.0763 6.3442C36.4296 5.8973 35.9183 5.38608 35.4715 3.7391C35.3397 3.25376 34.9131 2.92779 34.41 2.92779C33.9069 2.92779 33.4803 3.25385 33.3485 3.73928C33.2204 4.2114 33.0853 4.58171 32.9293 4.88087C32.8413 4.78843 32.7525 4.69674 32.6623 4.60656C29.6916 1.63592 25.7424 0 21.5423 0C12.8706 0 5.81583 7.05482 5.81583 15.7264V24.192C5.81583 24.5803 6.13064 24.8951 6.51895 24.8951C6.90726 24.8951 7.22207 24.5804 7.22207 24.192V15.7264C7.22207 7.83022 13.646 1.40624 21.5423 1.40624C25.3669 1.40624 28.9628 2.89601 31.6677 5.60096C31.763 5.69611 31.8565 5.79324 31.949 5.89111C31.64 6.06117 31.2508 6.20639 30.7433 6.3442C30.2579 6.47601 29.932 6.90267 29.932 7.40572C29.932 7.90878 30.258 8.33544 30.7435 8.46725C32.3902 8.91406 32.9015 9.42527 33.3485 11.0728C33.4804 11.5574 33.9069 11.883 34.4098 11.883C34.7365 11.883 35.0303 11.745 35.2328 11.5156C35.6505 12.8713 35.8625 14.2812 35.8625 15.7264V21.9889C35.8625 22.3773 36.1772 22.692 36.5656 22.692C36.954 22.692 37.2687 22.3773 37.2687 21.9889V15.7264C37.2687 13.6193 36.8596 11.5795 36.0532 9.65693C36.4404 9.08412 37.0117 8.75628 38.0764 8.46725C38.0765 8.46715 38.0767 8.46715 38.0768 8.46706C38.5615 8.33515 38.8871 7.90859 38.8871 7.40572C38.8871 6.90285 38.5615 6.47629 38.0763 6.3442ZM34.6423 9.28324C34.6408 9.28624 34.6393 9.28933 34.6377 9.29233C34.637 9.29374 34.6362 9.29515 34.6356 9.29665C34.5558 9.45124 34.4804 9.61793 34.409 9.79886C33.9282 8.5895 33.2252 7.88675 32.0159 7.40619C32.6359 7.16104 33.1045 6.86601 33.4814 6.49064C33.4839 6.4882 33.4862 6.48548 33.4886 6.48295C33.4919 6.47948 33.4951 6.47611 33.4984 6.47264C33.8721 6.09539 34.1663 5.62796 34.4102 5.01165C34.8904 6.22036 35.5925 6.9232 36.7999 7.40385C35.8835 7.76328 35.1567 8.29456 34.6423 9.28324Z" fill="#242729"/>
<path d="M44.4516 39.765L41.7299 32.2873C41.6518 32.0725 41.5247 31.8847 41.3606 31.7348L42.1171 25.7923C42.2244 24.9511 41.8928 24.1328 41.2303 23.6034C40.5678 23.074 39.6965 22.9309 38.8995 23.221L37.1534 23.8566C37.1516 23.8572 37.1497 23.8575 37.148 23.8582L34.606 24.7834C34.6044 24.7839 34.6029 24.7849 34.6012 24.7854L32.8548 25.4211C32.0579 25.7112 31.4823 26.3807 31.3151 27.212C31.1479 28.0435 31.4199 28.8835 32.0428 29.4591L36.442 33.5248C36.4126 33.7451 36.436 33.9707 36.5142 34.1856L37.3416 36.4588C37.3417 36.4592 37.3418 36.4595 37.3419 36.4598C37.342 36.46 37.3421 36.4602 37.3422 36.4604L39.2358 41.6631C40.0742 43.967 43.3119 44.1327 44.359 41.8869C44.6723 41.2153 44.7052 40.4616 44.4516 39.765ZM37.31 32.4126L32.9971 28.4267C32.7334 28.183 32.623 27.8416 32.6937 27.4896C32.7645 27.1377 32.9985 26.8655 33.3358 26.7427L33.8566 26.5532C33.9242 27.1543 34.1504 27.8186 34.504 28.379L35.297 29.6365C35.4307 29.8486 35.6589 29.9646 35.8924 29.9646C36.0205 29.9646 36.1504 29.9296 36.2668 29.8561C36.5952 29.649 36.6936 29.2148 36.4865 28.8863L35.6934 27.6288C35.3048 27.0126 35.2128 26.3206 35.2464 26.0473L37.4701 25.238C37.6715 25.4257 38.046 26.015 38.1442 26.7368L38.345 28.2098C38.3976 28.5946 38.7537 28.8641 39.1367 28.8116C39.5214 28.7591 39.7908 28.4046 39.7384 28.02L39.5376 26.547C39.4481 25.8904 39.1944 25.2361 38.8598 24.7322C39.1264 24.6961 39.7288 24.2034 40.3525 24.702C40.6329 24.9261 40.7677 25.2587 40.7222 25.6147L39.9805 31.4406C39.9672 31.445 39.9538 31.4482 39.9406 31.453L37.3487 32.3964C37.3354 32.4012 37.323 32.4074 37.31 32.4126ZM37.954 34.0302L40.527 33.0938L40.9957 34.3818L38.4228 35.3183L37.954 34.0302ZM41.265 41.955C40.9336 41.8005 40.6822 41.526 40.5571 41.1824L38.9038 36.6397L41.4767 35.7033L43.1302 40.246C43.5497 41.3984 42.3588 42.4649 41.265 41.955Z" fill="#242729"/>
</svg>
