<svg width="48" height="48" viewBox="0 0 48 48" fill="none" xmlns="http://www.w3.org/2000/svg">
<path d="M43.3555 34.5752C43.7114 34.5752 44 34.2867 44 33.9307V5.98383C44 5.37874 43.5081 4.88641 42.9034 4.88641H39.1136V1.09742C39.1136 0.492336 38.6217 0 38.017 0H13.9664C13.7943 0 13.6306 0.0690938 13.5107 0.188719L7.76669 5.93261C7.65299 6.04656 7.57797 6.21182 7.57797 6.38842V12.7497C7.57797 13.1057 7.86655 13.3942 8.2225 13.3942C8.57845 13.3942 8.86703 13.1056 8.86703 12.7497V7.03295H13.5136C14.1186 7.03295 14.6108 6.54079 14.6108 5.93605V1.28906H37.8245V37.8245H8.86703V34.9862C9.01355 34.9862 17.2739 34.9861 18.1361 34.9861C19.4746 34.9861 23.4303 33.6348 26.513 32.5013C27.0281 32.3118 27.361 31.8348 27.3609 31.2861C27.3609 30.7374 27.0279 30.2606 26.5129 30.0712C23.43 28.9374 19.474 27.5859 18.1361 27.5859H8.86703V15.7575C8.86703 15.4015 8.57845 15.113 8.2225 15.113C7.86655 15.113 7.57797 15.4015 7.57797 15.7575V27.586H6.93473C6.85437 27.0509 6.39289 26.6389 5.83576 26.6389H4.14365C3.53005 26.6389 3.03093 27.1381 3.03093 27.7515V28.3372H1.85213C0.830844 28.3372 0 29.168 0 30.1893V32.3829C0 33.4042 0.830844 34.235 1.85213 34.235H3.03102V34.8207C3.03102 35.4342 3.53014 35.9333 4.14373 35.9333H5.83576C6.39289 35.9333 6.85437 35.5212 6.93473 34.9862H7.57797V38.0169C7.57797 38.6216 8.06988 39.1135 8.67453 39.1135H12.4644V42.9034C12.4644 43.5081 12.9563 44 13.5609 44H42.9034C43.5081 44 44 43.5081 44 42.9034V36.9385C44 36.5825 43.7114 36.294 43.3555 36.294C42.9995 36.294 42.7109 36.5825 42.7109 36.9385V42.7109H13.7534V39.1136H38.017C38.6217 39.1136 39.1136 38.6217 39.1136 38.017V6.17547H42.7109V33.9307C42.7109 34.2867 42.9995 34.5752 43.3555 34.5752V34.5752ZM9.77848 5.74372L13.3217 2.2006V5.74372H9.77848ZM16.328 28.875C15.9743 29.403 15.7394 30.0052 15.6438 30.6414H6.94839V28.875H16.328ZM21.5915 29.7307V32.8416C18.5785 33.799 18.1187 33.6884 18.0676 33.697C17.3224 33.1209 16.8829 32.2331 16.8829 31.2859C16.8829 30.3388 17.3223 29.451 18.0675 28.8749C18.1398 28.8872 18.5209 28.7549 21.5915 29.7307ZM6.94839 31.9305H15.6438C15.7394 32.5668 15.9744 33.1691 16.3281 33.6971C15.1264 33.6971 8.23685 33.6972 6.94839 33.6972V31.9305ZM26.0718 31.2825C26.0725 31.2858 26.0728 31.2893 26.0756 31.288C26.0747 31.2886 26.0724 31.2898 26.0681 31.2914C24.9074 31.7182 23.8378 32.0961 22.8807 32.4188V30.1534C23.8378 30.4762 26.0709 31.2821 26.0718 31.2825V31.2825ZM1.85213 32.9459C1.54163 32.9459 1.28906 32.6934 1.28906 32.3829V30.1893C1.28906 29.8789 1.54163 29.6263 1.85213 29.6263H3.03102V32.9459H1.85213ZM5.65933 34.6443H4.32008V27.928H5.65941V34.6443H5.65933Z" fill="#242729"/>
<path d="M25.1806 11.2971H16.2415C15.6044 11.2971 15.0861 11.8154 15.0861 12.4525V21.3917C15.0861 22.0288 15.6045 22.5471 16.2415 22.5471H19.8134C20.1357 25.5058 22.6485 27.8164 25.6915 27.8164C28.9524 27.8164 31.6054 25.1634 31.6054 21.9025C31.6054 18.8595 29.2948 16.3468 26.3361 16.0245V12.4525C26.3361 11.8154 25.8177 11.2971 25.1806 11.2971V11.2971ZM16.3751 12.5862H25.0469V16.0245C22.3 16.3237 20.1126 18.5111 19.8133 21.258H16.3751V12.5862ZM25.047 17.3237V21.258H21.1126C21.3977 19.2228 23.0117 17.6089 25.047 17.3237ZM30.3163 21.9025C30.3163 24.4527 28.2416 26.5274 25.6914 26.5274C23.3601 26.5274 21.4271 24.7931 21.1125 22.5471H25.1806C25.8178 22.5471 26.3361 22.0288 26.3361 21.3917V17.3237C28.582 17.6384 30.3163 19.5712 30.3163 21.9025V21.9025Z" fill="#242729"/>
</svg>
