<svg width="48" height="48" viewBox="0 0 48 48" fill="none" xmlns="http://www.w3.org/2000/svg">
<path d="M42.8936 31.5483C42.5373 31.5483 42.2486 31.837 42.2486 32.1932V39.6158C42.2486 40.3159 41.6791 40.8855 40.9789 40.8855H22.4013V38.9894C22.4013 38.7958 22.3634 38.5485 22.2337 38.2768C23.0325 37.9839 23.6914 37.626 24.146 37.2045H25.4463C26.4813 37.2045 27.3233 36.3624 27.3233 35.3274C27.3233 34.2923 26.4813 33.4503 25.4463 33.4503H24.8327V32.2087C24.8327 32.1943 24.8321 32.1796 24.8316 32.1649H25.4463C26.4813 32.1649 27.3233 31.3229 27.3233 30.2878C27.3233 29.2528 26.4813 28.4108 25.4463 28.4108H23.8493C23.2659 28.4108 22.7438 28.6784 22.3993 29.0972C22.4002 29.0746 22.4014 29.0521 22.4014 29.0293V26.4414C22.7459 26.8587 23.2671 27.1252 23.8492 27.1252H25.4462C26.4812 27.1252 27.3232 26.2831 27.3232 25.2481C27.3232 24.2131 26.4812 23.3711 25.4462 23.3711H24.8326V20.8534H25.4462C26.4812 20.8534 27.3232 20.0113 27.3232 18.9763C27.3232 17.9413 26.4812 17.0993 25.4462 17.0993H23.8491C23.3383 17.0993 22.854 17.3104 22.5045 17.6684C20.7327 16.9558 18.1738 16.5904 15.6319 16.5904C14.8247 16.5904 14.0158 16.6273 13.2309 16.7004V4.55964C13.2309 3.85951 13.8005 3.28992 14.5006 3.28992H19.7198C20.076 3.28992 20.3648 3.00117 20.3648 2.64496C20.3648 2.28875 20.076 2 19.7198 2H14.5006C13.0892 2 11.941 3.14829 11.941 4.55964V16.8574C8.86233 17.3232 6.43125 18.3944 6.43125 20.0312V23.0226C4.42797 23.7969 4 24.753 4 25.4278V29.0293C4 30.095 5.03056 30.9208 6.59909 31.4961C6.46941 31.7675 6.43134 32.0146 6.43134 32.2087V35.8102C6.43134 36.0607 6.48849 36.2978 6.596 36.5217C4.47309 37.2947 4 38.2727 4 38.9895V42.591C4 44.737 8.04498 45.7568 11.5089 45.9781C11.5229 45.9789 11.5367 45.9795 11.5505 45.9795C11.8879 45.9795 12.1718 45.717 12.1936 45.3756C12.2163 45.0201 11.9465 44.7134 11.591 44.6907C7.19266 44.4098 5.28992 43.1642 5.28992 42.591V40.8366C6.98297 41.888 10.1045 42.4301 13.2006 42.4301C16.2968 42.4301 19.4183 41.888 21.1113 40.8366V42.591C21.1113 43.2339 18.8877 44.4921 14.4573 44.7109C14.1015 44.7284 13.8273 45.0311 13.8449 45.3868C13.8619 45.7319 14.147 46 14.4885 46C14.4992 46 14.51 45.9997 14.5208 45.9992C18.4433 45.8056 22.4013 44.6767 22.4013 42.591V42.1756H40.979C42.3904 42.1756 43.5387 41.0273 43.5387 39.616V32.1934C43.5387 31.8371 43.2498 31.5483 42.8936 31.5483ZM24.8326 35.8102V34.7404H25.4462V34.7403C25.7699 34.7403 26.0332 35.0036 26.0332 35.3274C26.0332 35.6511 25.7698 35.9145 25.4462 35.9145H24.8292C24.8315 35.88 24.8326 35.8451 24.8326 35.8102ZM23.8492 29.7007H25.4462C25.7699 29.7007 26.0332 29.964 26.0332 30.2877C26.0332 30.6115 25.7698 30.8749 25.4462 30.8749H24.2159C23.9861 30.6464 23.6778 30.4178 23.2698 30.1972C23.3136 29.9165 23.5563 29.7007 23.8492 29.7007ZM23.5427 32.2086C23.5427 32.465 23.1085 33.0407 21.4815 33.5723C19.9284 34.0797 17.851 34.3592 15.632 34.3592C10.5134 34.3592 7.72126 32.9385 7.72126 32.2086C7.72109 32.0969 7.79302 31.9798 7.87517 31.8819C9.44508 32.2713 11.3274 32.4699 13.2005 32.4699C16.393 32.4699 19.6125 31.8935 21.2651 30.7768C23.0612 31.3209 23.5427 31.9468 23.5427 32.2086ZM25.4463 24.6612C25.7699 24.6611 26.0332 24.9244 26.0332 25.2482C26.0332 25.5719 25.7698 25.8352 25.4462 25.8352H23.8492C23.6503 25.8352 23.4745 25.7355 23.3683 25.5839C23.8451 25.3125 24.2231 25.0047 24.4758 24.6612H25.4463ZM23.8492 18.3895H25.4462C25.7699 18.3895 26.0332 18.6529 26.0332 18.9766C26.0332 19.3003 25.7698 19.5636 25.4462 19.5636H24.7625C24.6296 19.1249 24.3105 18.7332 23.8467 18.3896C23.8477 18.3896 23.8483 18.3895 23.8492 18.3895ZM9.78238 18.6675C11.3354 18.1601 13.4127 17.8806 15.6319 17.8806C20.7505 17.8806 23.5426 19.3013 23.5426 20.0313C23.5426 20.2876 23.1084 20.8633 21.4814 21.3949C19.9283 21.9024 17.851 22.1819 15.6319 22.1819C10.5133 22.1819 7.72117 20.7612 7.72117 20.0313C7.72109 19.7748 8.15533 19.1992 9.78238 18.6675ZM7.721 21.8784C9.41414 22.9298 12.5356 23.4719 15.6318 23.4719C18.7279 23.4719 21.8494 22.9297 23.5425 21.8784V23.6327C23.5425 23.8344 23.2736 24.2334 22.3675 24.6533C22.3651 24.6543 22.3628 24.6554 22.3605 24.6564C22.1158 24.7694 21.8256 24.8839 21.4812 24.9964C19.9281 25.5039 17.8509 25.7833 15.6317 25.7833C10.5132 25.7833 7.721 24.3626 7.721 23.6327V21.8784V21.8784ZM6.59823 24.3489C7.46465 26.1406 11.5703 27.0732 15.6319 27.0732C16.6853 27.0732 17.7416 27.0103 18.7437 26.8862C17.2281 27.3325 15.2613 27.5784 13.2007 27.5784C8.08211 27.5784 5.29001 26.1577 5.29001 25.4277C5.28992 25.1611 5.69907 24.7437 6.59823 24.3489ZM5.28992 29.0292V27.2749C6.98297 28.3262 10.1045 28.8683 13.2006 28.8683C16.1204 28.8683 19.3616 28.3621 21.1113 27.2768V29.0292C21.1113 29.2855 20.6772 29.8612 19.0501 30.3928C17.4971 30.9003 15.4198 31.1798 13.2006 31.1798C8.08202 31.1799 5.28992 29.7592 5.28992 29.0292ZM19.0501 40.3531C17.4971 40.8606 15.4198 41.1401 13.2006 41.1401C8.08202 41.1401 5.28992 39.7194 5.28992 38.9894C5.28992 38.6278 6.00406 38.0324 7.56752 37.5577C9.22018 38.6743 12.4396 39.2507 15.6319 39.2507C17.5051 39.2507 19.3875 39.0521 20.9575 38.6626C21.0391 38.7598 21.1113 38.8774 21.1113 38.9894C21.1113 39.2458 20.6772 39.8215 19.0501 40.3531ZM21.4813 37.1737C19.9283 37.6812 17.851 37.9606 15.6318 37.9606C10.5133 37.9606 7.72109 36.5399 7.72109 35.8101V34.0557C9.41414 35.1071 12.5356 35.6492 15.6318 35.6492C18.7279 35.6492 21.8494 35.1071 23.5425 34.0557V35.8101C23.5426 36.0664 23.1084 36.6421 21.4813 37.1737Z" fill="#242729"/>
<path d="M40.979 2H22.659C22.3028 2 22.014 2.28875 22.014 2.64496C22.014 3.00117 22.3028 3.28992 22.659 3.28992H40.979C41.6792 3.28992 42.2488 3.85951 42.2488 4.55964V29.254C42.2488 29.6102 42.5374 29.899 42.8937 29.899C43.25 29.899 43.5387 29.6102 43.5387 29.254V4.55964C43.5387 3.14829 42.3904 2 40.979 2Z" fill="#242729"/>
<path d="M39.8253 7.26959C39.8253 6.91338 39.5367 6.62463 39.1804 6.62463H16.2993C15.9431 6.62463 15.6543 6.91338 15.6543 7.26959V13.6093C15.6543 13.9655 15.9431 14.2542 16.2993 14.2542H39.1804C39.5367 14.2542 39.8254 13.9655 39.8254 13.6093V7.26959H39.8253ZM38.5354 12.9643H16.9442V7.91455H38.5354V12.9643Z" fill="#242729"/>
<path d="M31.6304 17.0995H30.0334C28.9984 17.0995 28.1564 17.9416 28.1564 18.9766C28.1564 20.0116 28.9984 20.8536 30.0334 20.8536H31.6304C32.6654 20.8536 33.5074 20.0116 33.5074 18.9766C33.5074 17.9416 32.6653 17.0995 31.6304 17.0995ZM31.6304 19.5636H30.0334C29.7097 19.5636 29.4464 19.3003 29.4464 18.9766C29.4464 18.6529 29.7098 18.3896 30.0334 18.3896H31.6304C31.9541 18.3896 32.2174 18.6529 32.2174 18.9766C32.2174 19.3003 31.954 19.5636 31.6304 19.5636Z" fill="#242729"/>
<path d="M37.8146 17.0995H36.2176C35.1826 17.0995 34.3406 17.9416 34.3406 18.9766C34.3406 20.0116 35.1826 20.8536 36.2176 20.8536H37.8146C38.8496 20.8536 39.6916 20.0116 39.6916 18.9766C39.6916 17.9416 38.8496 17.0995 37.8146 17.0995ZM37.8146 19.5636H36.2176C35.8939 19.5636 35.6306 19.3003 35.6306 18.9766C35.6306 18.6529 35.894 18.3896 36.2176 18.3896H37.8146C38.1383 18.3896 38.4016 18.6529 38.4016 18.9766C38.4016 19.3003 38.1383 19.5636 37.8146 19.5636Z" fill="#242729"/>
<path d="M31.6304 23.3711H30.0334C28.9984 23.3711 28.1564 24.2131 28.1564 25.2481C28.1564 26.2832 28.9984 27.1252 30.0334 27.1252H31.6304C32.6654 27.1252 33.5074 26.2832 33.5074 25.2481C33.5074 24.2131 32.6653 23.3711 31.6304 23.3711ZM31.6304 25.8353H30.0334C29.7097 25.8353 29.4464 25.5719 29.4464 25.2482C29.4464 24.9245 29.7098 24.6612 30.0334 24.6612H31.6304C31.9541 24.6612 32.2174 24.9245 32.2174 25.2482C32.2173 25.5719 31.954 25.8353 31.6304 25.8353Z" fill="#242729"/>
<path d="M37.8146 23.3711H36.2176C35.1826 23.3711 34.3406 24.2131 34.3406 25.2481C34.3406 26.2832 35.1826 27.1252 36.2176 27.1252H37.8146C38.8496 27.1252 39.6916 26.2832 39.6916 25.2481C39.6916 24.2131 38.8496 23.3711 37.8146 23.3711ZM37.8146 25.8353H36.2176C35.8939 25.8353 35.6306 25.5719 35.6306 25.2482C35.6306 24.9245 35.894 24.6612 36.2176 24.6612H37.8146C38.1383 24.6612 38.4016 24.9245 38.4016 25.2482C38.4016 25.5719 38.1383 25.8353 37.8146 25.8353Z" fill="#242729"/>
<path d="M31.6304 28.4107H30.0334C28.9984 28.4107 28.1564 29.2527 28.1564 30.2877C28.1564 31.3228 28.9984 32.1649 30.0334 32.1649H31.6304C32.6654 32.1649 33.5074 31.3228 33.5074 30.2877C33.5074 29.2527 32.6653 28.4107 31.6304 28.4107ZM31.6304 30.8749H30.0334C29.7097 30.8749 29.4464 30.6115 29.4464 30.2877C29.4464 29.964 29.7098 29.7007 30.0334 29.7007H31.6304C31.9541 29.7007 32.2174 29.964 32.2174 30.2877C32.2173 30.6115 31.954 30.8749 31.6304 30.8749Z" fill="#242729"/>
<path d="M37.8146 28.4107H36.2176C35.1826 28.4107 34.3406 29.2527 34.3406 30.2877C34.3406 31.3228 35.1826 32.1649 36.2176 32.1649H37.8146C38.8496 32.1649 39.6916 31.3228 39.6916 30.2877C39.6916 29.2527 38.8496 28.4107 37.8146 28.4107ZM37.8146 30.8749H36.2176C35.8939 30.8749 35.6306 30.6115 35.6306 30.2877C35.6306 29.964 35.894 29.7007 36.2176 29.7007H37.8146C38.1383 29.7007 38.4016 29.964 38.4016 30.2877C38.4016 30.6115 38.1383 30.8749 37.8146 30.8749Z" fill="#242729"/>
<path d="M31.6304 33.4503H30.0334C28.9984 33.4503 28.1564 34.2923 28.1564 35.3274C28.1564 36.3624 28.9984 37.2045 30.0334 37.2045H31.6304C32.6654 37.2045 33.5074 36.3624 33.5074 35.3274C33.5073 34.2923 32.6653 33.4503 31.6304 33.4503ZM31.6304 35.9144H30.0334C29.7097 35.9144 29.4464 35.651 29.4464 35.3273C29.4464 35.0035 29.7098 34.7402 30.0334 34.7402H31.6304C31.9541 34.7402 32.2174 35.0035 32.2174 35.3273C32.2173 35.651 31.954 35.9144 31.6304 35.9144Z" fill="#242729"/>
<path d="M37.8146 33.4503H36.2176C35.1826 33.4503 34.3406 34.2923 34.3406 35.3274C34.3406 36.3624 35.1826 37.2045 36.2176 37.2045H37.8146C38.8496 37.2045 39.6916 36.3624 39.6916 35.3274C39.6916 34.2923 38.8496 33.4503 37.8146 33.4503ZM37.8146 35.9144H36.2176C35.8939 35.9144 35.6306 35.651 35.6306 35.3273C35.6306 35.0035 35.894 34.7402 36.2176 34.7402H37.8146C38.1383 34.7402 38.4016 35.0035 38.4016 35.3273C38.4016 35.651 38.1383 35.9144 37.8146 35.9144Z" fill="#242729"/>
<path d="M9.85226 14.7342H7.67151C7.3153 14.7342 7.02655 15.0229 7.02655 15.3792C7.02655 15.7354 7.3153 16.0241 7.67151 16.0241H9.85226C10.2085 16.0241 10.4972 15.7354 10.4972 15.3792C10.4972 15.0229 10.2085 14.7342 9.85226 14.7342Z" fill="#242729"/>
<path d="M9.85226 12.7356H7.67151C7.3153 12.7356 7.02655 13.0243 7.02655 13.3805C7.02655 13.7367 7.3153 14.0255 7.67151 14.0255H9.85226C10.2085 14.0255 10.4972 13.7367 10.4972 13.3805C10.4972 13.0243 10.2085 12.7356 9.85226 12.7356Z" fill="#242729"/>
<path d="M9.84799 10.5182C9.49178 10.5182 9.20303 10.8069 9.20303 11.1631C9.20303 11.5194 9.49178 11.8081 9.84799 11.8081H9.85659C10.2128 11.8081 10.4972 11.5194 10.4972 11.1631C10.4972 10.8069 10.2042 10.5182 9.84799 10.5182Z" fill="#242729"/>
</svg>
