<svg width="48" height="48" viewBox="0 0 48 48" fill="none" xmlns="http://www.w3.org/2000/svg">
<g clip-path="url(#clip0_552_130)">
<path d="M42.9673 26.7456H17.7371V25.4067C17.7371 24.2083 16.7621 23.2333 15.5637 23.2333H8.58919C8.31919 23.2333 8.06081 23.2832 7.82203 23.3736V18.7089C7.82203 17.9609 7.2135 17.3524 6.46547 17.3524H4.25109C3.50306 17.3524 2.89453 17.9609 2.89453 18.7089V41.7178C2.89453 42.1062 3.20934 42.421 3.59766 42.421C3.98597 42.421 4.30078 42.1062 4.30078 41.7178V18.7587H6.41578V46.5938H4.30078V44.9991C4.30078 44.6107 3.98597 44.296 3.59766 44.296C3.20934 44.296 2.89453 44.6107 2.89453 44.9991V46.6435C2.89453 47.3915 3.50306 48 4.25109 48H6.46547C7.2135 48 7.82203 47.3915 7.82203 46.6435V42.1476H16.3309V43.1312C16.3309 44.1945 17.1959 45.0595 18.2592 45.0595H39.9683V46.6435C39.9683 47.3915 40.5768 48 41.3248 48H43.5392C44.2872 48 44.8958 47.3915 44.8958 46.6435V43.1312V28.6739C44.8957 27.6107 44.0306 26.7456 42.9673 26.7456V26.7456ZM16.3309 37.2415H7.82203V30.453H16.3309V37.2415ZM8.58919 24.6396H15.5638C15.9868 24.6396 16.331 24.9837 16.331 25.4067V29.0468H7.82203V25.4067C7.82203 24.9837 8.16619 24.6396 8.58919 24.6396V24.6396ZM7.82203 40.7413V38.7171H16.3309V40.7413H7.82203ZM17.7371 43.1312C17.7371 41.4751 17.7371 30.4794 17.7371 28.1518H42.9673C43.2551 28.1518 43.4893 28.386 43.4893 28.6739V43.1312C43.4893 43.419 43.2551 43.6532 42.9673 43.6532C41.9939 43.6532 19.3733 43.6532 18.2592 43.6532C17.9713 43.6533 17.7371 43.4191 17.7371 43.1312V43.1312ZM43.4894 46.5938H41.3745V45.0596H42.9674C43.0267 45.0596 43.085 45.0559 43.1429 45.0506C43.1578 45.0492 43.1726 45.0477 43.1874 45.0461C43.2401 45.0401 43.2923 45.0324 43.3437 45.0221C43.3486 45.0212 43.3537 45.0206 43.3585 45.0195C43.4027 45.0104 43.4465 44.9999 43.4895 44.9877V46.5938H43.4894Z" fill="#242729"/>
<path d="M43.8186 17.1421C37.987 17.1421 38.3758 17.1325 38.2224 17.1626C38.1095 17.1352 38.1458 17.1421 37.128 17.1421L35.5436 16.2595H43.1402C44.2238 16.2595 45.1055 15.3779 45.1055 14.2943C45.1055 13.2106 44.2238 12.329 43.1402 12.329H42.3686C41.9448 10.7961 41.2598 9.36169 40.3266 8.05866C40.1004 7.74291 39.6611 7.67034 39.3455 7.89647C39.0298 8.12259 38.9572 8.56191 39.1833 8.87756C39.9432 9.93853 40.5201 11.0963 40.904 12.329H17.6443C19.2279 7.21884 23.9184 3.78131 29.2745 3.78131C32.1135 3.78131 34.8878 4.77937 37.078 6.60947C37.3762 6.85856 37.8194 6.81881 38.0684 6.52078C38.3174 6.22275 38.2777 5.77941 37.9797 5.53041C36.0125 3.88669 33.6167 2.83997 31.0929 2.49816V1.81856C31.0929 0.815813 30.2772 0 29.2745 0C28.2717 0 27.4559 0.815812 27.4559 1.81847V2.49881C25.0179 2.82994 22.6925 3.81966 20.7668 5.36822C18.5499 7.15106 16.9359 9.60637 16.1798 12.3289H15.5485C14.4649 12.3289 13.5833 13.2105 13.5833 14.2942C13.5833 15.3778 14.4649 16.2594 15.5485 16.2594H19.6833C19.5887 16.3988 19.5087 16.5495 19.4496 16.7125C19.3035 17.1157 19.4495 17.5708 19.7965 17.795L26.1745 21.9133C26.2728 21.9768 26.3853 22.0147 26.5019 22.0237C35.8576 22.7454 33.5073 22.5443 37.3533 22.9374V23.8112C37.3533 24.4051 37.8365 24.8883 38.4304 24.8883H40.0704C40.1568 25.3963 40.5989 25.7848 41.1311 25.7848H43.8187C44.4126 25.7848 44.8958 25.3016 44.8958 24.7077V18.2193C44.8957 17.6253 44.4125 17.1421 43.8186 17.1421V17.1421ZM28.8622 2.38153V1.81847C28.8622 1.59112 29.0471 1.40625 29.2745 1.40625C29.5018 1.40625 29.6867 1.59122 29.6867 1.81847V2.38153C29.6757 2.38116 29.665 2.38134 29.6542 2.38106C29.3821 2.37338 29.1442 2.37262 28.8622 2.38153V2.38153ZM43.1402 13.7352C43.4484 13.7352 43.6992 13.986 43.6992 14.2943C43.6992 14.6025 43.4484 14.8533 43.1402 14.8533H33.0192C31.2968 13.8938 32.0703 14.1923 30.0993 13.7352H43.1402ZM14.9895 14.2943C14.9895 13.986 15.2403 13.7352 15.5485 13.7352H26.4345C26.434 13.7362 26.4337 13.7371 26.4331 13.7379C26.2945 13.9859 26.205 14.4228 26.2662 14.8532H15.5485C15.2403 14.8533 14.9895 14.6025 14.9895 14.2943V14.2943ZM27.1453 16.2595C27.2568 16.335 27.3766 16.4008 27.505 16.454L29.1339 17.1707C28.7398 17.1975 28.0875 17.2341 26.5417 17.3273L23.9397 16.2595H27.1453ZM26.7876 20.6352L20.9951 16.895C21.0308 16.8694 21.0694 16.8472 21.1104 16.8291C21.2696 16.7586 21.446 16.7562 21.6071 16.8223L26.1564 18.6893C26.2544 18.7295 26.3599 18.7466 26.4658 18.7406C29.5479 18.5541 29.3995 18.5752 30.1062 18.4885C30.674 18.4189 31.116 17.9566 31.1571 17.3894C31.2202 16.5197 30.4951 16.2189 30.062 16.0392C29.9963 16.012 29.9272 15.9834 29.8556 15.9518L28.0634 15.1633C28.0575 15.1608 28.0517 15.1582 28.0458 15.1559C27.8565 15.0787 27.7064 14.9056 27.6639 14.688C27.6593 14.6641 27.6556 14.6399 27.6537 14.6155C27.6536 14.6142 27.6533 14.6129 27.6533 14.6115L31.1521 15.4229L36.6031 18.4594C36.8003 18.5693 36.9296 18.5483 37.3531 18.5483V21.5238C33.322 21.1118 36.3147 21.3703 26.7876 20.6352V20.6352ZM38.7594 18.5483H40.054V23.482H38.7594C38.7594 22.4438 38.7594 19.4333 38.7594 18.5483ZM43.4894 24.3785H41.4603V24.1851V18.5483H43.4894V24.3785Z" fill="#242729"/>
</g>
<defs>
<clipPath id="clip0_552_130">
<rect width="48" height="48" fill="white"/>
</clipPath>
</defs>
</svg>
