<svg width="46" height="46" viewBox="0 0 46 46" fill="none" xmlns="http://www.w3.org/2000/svg">
<path d="M29.325 46H17.3937C16.9625 46 16.675 45.6406 16.675 45.2813V41.975C16.675 41.5438 17.0344 41.2563 17.3937 41.2563C17.7531 41.2563 18.1125 41.6156 18.1125 41.975V44.5625H28.5344V41.975C28.5344 41.5438 28.8937 41.2563 29.2531 41.2563C29.6125 41.2563 29.9719 41.6156 29.9719 41.975V45.2813C30.0437 45.7125 29.6844 46 29.325 46Z" fill="#242729"/>
<path d="M32.6312 46H14.0875C13.6562 46 13.3687 45.6406 13.3687 45.2812C13.3687 44.9219 13.7281 44.5625 14.0875 44.5625H32.6312C33.0625 44.5625 33.35 44.9219 33.35 45.2812C33.35 45.6406 32.9906 46 32.6312 46Z" fill="#242729"/>
<path d="M45.2812 31.9125H1.4375C1.00625 31.9125 0.71875 31.5531 0.71875 31.1938V16.675C0.71875 16.2438 1.07812 15.9563 1.4375 15.9563C1.79688 15.9563 2.15625 16.3156 2.15625 16.675V30.4031H44.5625V9.41563C44.5625 8.19375 43.5563 7.1875 42.3344 7.1875H18.8313C18.4 7.1875 18.1125 6.82813 18.1125 6.46875C18.1125 6.10938 18.4719 5.75 18.8313 5.75H42.3344C44.3469 5.75 46 7.40313 46 9.41563V31.1938C46 31.5531 45.6406 31.9125 45.2812 31.9125Z" fill="#242729"/>
<path d="M42.3344 39.7469H4.3125C2.3 39.7469 0.71875 38.0938 0.71875 36.0813V31.1219C0.71875 30.6906 1.07812 30.4031 1.4375 30.4031H45.2812C45.7125 30.4031 46 30.7625 46 31.1219V36.0813C46 38.0938 44.3469 39.7469 42.3344 39.7469ZM2.15625 31.9125V36.0813C2.15625 37.3031 3.1625 38.3094 4.38437 38.3094H42.4062C43.6281 38.3094 44.6344 37.3031 44.6344 36.0813V31.9125H2.15625Z" fill="#242729"/>
<path d="M23.3594 37.3031C22.1375 37.3031 21.2031 36.2969 21.2031 35.1469C21.2031 33.925 22.2094 32.9906 23.3594 32.9906C24.5813 32.9906 25.5156 33.9969 25.5156 35.1469C25.5156 36.2969 24.5813 37.3031 23.3594 37.3031ZM23.3594 34.3563C22.9281 34.3563 22.6406 34.7156 22.6406 35.075C22.6406 35.5063 23 35.7938 23.3594 35.7938C23.7906 35.7938 24.0781 35.4344 24.0781 35.075C24.0781 34.7156 23.7188 34.3563 23.3594 34.3563Z" fill="#242729"/>
<path d="M23.7906 28.6063H22.8562C22.0656 28.6063 21.3469 28.0313 21.2031 27.2407L20.9875 25.8032C20.9875 25.7313 20.9156 25.6594 20.8437 25.6594C20.6281 25.5875 20.4125 25.5157 20.1969 25.3719C20.125 25.3719 20.0531 25.3 19.9812 25.3719L18.8313 26.2344C18.1844 26.7375 17.25 26.6657 16.675 26.0907L16.0281 25.3719C15.4531 24.7969 15.3813 23.9344 15.8844 23.2875L16.7469 22.1375C16.8187 22.0657 16.8187 21.9938 16.7469 21.9219C16.675 21.7063 16.5312 21.4907 16.4594 21.275C16.4594 21.275 16.3875 21.2032 16.3156 21.1313L14.8781 20.9157C14.2313 20.8438 13.6562 20.125 13.6562 19.3344V18.3282C13.6562 17.5375 14.2312 16.8188 15.0219 16.675L16.4594 16.4594C16.5312 16.4594 16.6031 16.3875 16.6031 16.3157C16.675 16.1 16.7469 15.8844 16.8906 15.6688C16.8906 15.5969 16.8906 15.525 16.8906 15.525L15.9563 14.375C15.4531 13.7282 15.525 12.8657 16.1 12.2907L16.7469 11.5719C17.3219 10.9969 18.2562 10.925 18.9031 11.4282L20.0531 12.2907C20.125 12.3625 20.1969 12.2907 20.2687 12.2907C20.4844 12.2188 20.7 12.075 20.9156 12.0032C20.9875 12.0032 21.0594 11.9313 21.0594 11.8594L21.275 10.4219C21.4187 9.63127 22.0656 9.05627 22.9281 9.05627H23.8625C24.6531 9.05627 25.3719 9.63127 25.5156 10.4219L25.7312 11.8594C25.7312 11.9313 25.8031 12.0032 25.875 12.0032C26.0906 12.075 26.3063 12.1469 26.5219 12.2907H26.7375L27.8875 11.4282C28.5344 10.9969 29.4687 10.9969 30.0437 11.5719L30.6906 12.2907C31.2656 12.8657 31.3375 13.7282 30.8344 14.375L29.9719 15.525C29.9 15.5969 29.9 15.6688 29.9719 15.7407C30.0437 15.9563 30.1875 16.1719 30.2594 16.3875C30.2594 16.4594 30.3312 16.5313 30.4031 16.5313L31.8406 16.7469C32.6312 16.8907 33.2062 17.5375 33.2062 18.4V19.4063C33.2062 20.1969 32.6312 20.9157 31.8406 21.0594L30.4031 21.275C30.3312 21.275 30.2594 21.3469 30.2594 21.4188C30.1875 21.6344 30.1156 21.85 29.9719 22.0657V22.2094L30.8344 23.3594C31.3375 24.0063 31.2656 24.8688 30.6906 25.4438L30.0437 26.1625C29.4687 26.7375 28.5344 26.8094 27.8875 26.3063L26.5937 25.3719C26.5219 25.3 26.45 25.3 26.3781 25.3719C26.1625 25.4438 25.9469 25.5875 25.7312 25.6594C25.6594 25.6594 25.6594 25.7313 25.6594 25.8032L25.4438 27.2407C25.3 28.0313 24.6531 28.6063 23.7906 28.6063V28.6063ZM20.1969 23.9344C20.4125 23.9344 20.7 24.0063 20.9156 24.0782C21.0594 24.15 21.275 24.2219 21.4187 24.2938C21.9937 24.5094 22.3531 25.0125 22.4969 25.5875L22.7125 27.025C22.7125 27.0969 22.7844 27.1688 22.8562 27.1688H23.7906C23.8625 27.1688 23.9344 27.0969 23.9344 27.025L24.15 25.5875C24.2219 25.0125 24.6531 24.5094 25.2281 24.2938C25.4437 24.2219 25.5875 24.15 25.7312 24.0782C26.2344 23.8625 26.9531 23.8625 27.3844 24.2219L28.5344 25.0844C28.6062 25.1563 28.6781 25.1563 28.75 25.0844L29.3969 24.3657C29.4687 24.2938 29.4687 24.2219 29.3969 24.15L28.6781 23C28.3187 22.4969 28.2469 21.9219 28.5344 21.3469C28.6062 21.2032 28.6781 20.9875 28.75 20.8438C28.9656 20.2688 29.4687 19.8375 30.0437 19.7657L31.4094 19.55C31.4812 19.55 31.5531 19.4782 31.5531 19.4063V18.4C31.5531 18.3282 31.4812 18.2563 31.4094 18.2563L29.9719 18.0407C29.3969 17.9688 28.8937 17.5375 28.6781 16.9625C28.6062 16.7469 28.5344 16.6032 28.4625 16.4594C28.175 15.8844 28.2469 15.2375 28.6062 14.8063L29.4687 13.6563C29.5406 13.5844 29.5406 13.5125 29.4687 13.4407L28.8219 12.7938C28.75 12.7219 28.6781 12.7219 28.6062 12.7938L27.4562 13.6563C27.025 14.0157 26.3063 14.0875 25.8031 13.8C25.6594 13.7282 25.4437 13.6563 25.3 13.5844C24.725 13.3688 24.3656 12.8657 24.2219 12.2907L24.0063 10.8532C24.0063 10.7813 23.9344 10.7094 23.8625 10.7094H22.9281C22.8562 10.7094 22.7844 10.7813 22.7844 10.8532L22.5687 12.2907C22.4969 12.8657 22.0656 13.3688 21.4906 13.5844C21.3469 13.6563 21.1312 13.7282 20.9875 13.8C20.4844 14.0157 19.7656 14.0157 19.3344 13.6563L18.1844 12.7938C18.1125 12.7219 18.0406 12.7219 17.9687 12.7938L17.3219 13.5125C17.25 13.5844 17.25 13.6563 17.3219 13.7282L18.1844 14.8782C18.5437 15.3813 18.6156 15.9563 18.3281 16.5313C18.2562 16.675 18.1844 16.8907 18.1125 17.0344C17.8969 17.6094 17.3937 18.0407 16.8187 18.1125L15.4531 18.3282C15.3812 18.3282 15.3094 18.4 15.3094 18.4719V19.4782C15.3094 19.55 15.3812 19.6219 15.4531 19.6219L16.8906 19.8375C17.4656 19.9094 17.9687 20.3407 18.1844 20.9157C18.2562 21.1313 18.3281 21.275 18.4 21.4188C18.6875 21.9938 18.6156 22.6407 18.2562 23.0719L17.3938 24.2219C17.3219 24.2938 17.3219 24.3657 17.3938 24.4375L18.0406 25.0844C18.1125 25.1563 18.1844 25.1563 18.2562 25.0844L19.4062 24.2219C19.4781 24.0063 19.8375 23.9344 20.1969 23.9344V23.9344Z" fill="#242729"/>
<path d="M23.3594 22.9281C21.0594 22.9281 19.2625 21.0594 19.2625 18.8313C19.2625 16.6031 21.1313 14.7344 23.3594 14.7344C25.6594 14.7344 27.4563 16.6031 27.4563 18.8313C27.4563 21.0594 25.5875 22.9281 23.3594 22.9281ZM23.3594 16.1719C21.9219 16.1719 20.7 17.3938 20.7 18.8313C20.7 20.2688 21.9219 21.4906 23.3594 21.4906C24.7969 21.4906 26.0188 20.2688 26.0188 18.8313C26.0188 17.3938 24.7969 16.1719 23.3594 16.1719Z" fill="#242729"/>
<path d="M8.9125 17.1781H8.12188C7.40313 17.1781 6.75625 16.6031 6.6125 15.8844L6.39687 14.6625C6.18125 14.5187 5.96563 14.4469 5.75 14.375L4.74375 15.0938C4.09687 15.525 3.23437 15.4531 2.73125 14.95L2.22812 14.375C1.725 13.8719 1.65313 13.0094 2.08438 12.4344L2.80313 11.4281C2.73125 11.2125 2.65937 10.9969 2.5875 10.7812L1.29375 10.5656C0.575 10.4219 0 9.775 0 9.05625V8.19375C0 7.475 0.575 6.82813 1.29375 6.68438L2.51562 6.46875L2.5875 6.39687C2.65937 6.18125 2.73125 6.0375 2.80313 5.82188L2.08438 4.74375C1.65313 4.09687 1.725 3.30625 2.22812 2.80313L2.80313 2.22812C3.30625 1.725 4.16875 1.65313 4.81562 2.08438L5.82188 2.80313C6.0375 2.73125 6.25312 2.65937 6.46875 2.5875L6.68438 1.29375C6.82813 0.575 7.475 0 8.19375 0H8.98438C9.70312 0 10.35 0.575 10.4938 1.29375L10.7094 2.51562L10.7812 2.5875C10.9969 2.65937 11.1406 2.73125 11.3563 2.80313L12.4344 2.08438C13.0094 1.65313 13.9438 1.725 14.4469 2.22812L15.0219 2.80313C15.525 3.30625 15.5969 4.16875 15.1656 4.74375L14.4469 5.75C14.5188 5.96563 14.5906 6.18125 14.6625 6.39687L15.9563 6.6125C16.675 6.75625 17.25 7.40313 17.25 8.12188V8.98438C17.25 9.775 16.675 10.35 15.9563 10.4938L14.7344 10.7094C14.5906 10.925 14.5188 11.1406 14.4469 11.3563L15.1656 12.4344C15.5969 13.0094 15.525 13.8719 15.0219 14.375L14.4469 14.95C13.9438 15.4531 13.0094 15.525 12.4344 15.0938L11.4281 14.375C11.2125 14.4469 10.9969 14.5187 10.7812 14.5906L10.5656 15.8844C10.35 16.675 9.70312 17.1781 8.9125 17.1781V17.1781ZM5.82188 12.9375C6.0375 12.9375 6.25312 13.0094 6.46875 13.0813C6.6125 13.1531 6.75625 13.225 6.9 13.2969C7.40313 13.5125 7.7625 13.9438 7.90625 14.5188L8.12188 15.7406L8.98438 15.8125C8.98438 15.8125 9.05625 15.8125 9.05625 15.7406L9.27187 14.5188C9.34375 13.9438 9.70313 13.5125 10.2781 13.2969C10.4219 13.225 10.5656 13.1531 10.7094 13.1531C11.2125 12.8656 11.8594 12.9375 12.2906 13.2969L13.2969 14.0156H13.3688L13.9437 13.4406V13.3688L13.225 12.3625C12.8656 11.9313 12.8656 11.3563 13.0813 10.7812C13.1531 10.6375 13.225 10.4937 13.2969 10.35C13.5125 9.84687 13.9438 9.41563 14.5188 9.34375L15.6687 9.12812L15.7406 9.05625V8.19375L15.6687 8.12188L14.3031 7.90625C13.7281 7.83437 13.2969 7.475 13.0813 6.9C13.0813 6.75625 13.0094 6.6125 12.9375 6.46875C12.7219 5.96563 12.7219 5.31875 13.0813 4.8875L13.8 3.88125V3.80938L13.225 3.23438H13.1531L12.1469 3.95312C11.7156 4.3125 11.0687 4.3125 10.5656 4.09687C10.4219 4.025 10.2781 3.95313 10.1344 3.88125C9.63125 3.66563 9.27187 3.23438 9.12812 2.65938L8.9125 1.4375H8.12188C8.12188 1.4375 8.05 1.4375 8.05 1.50937L7.83437 2.73125C7.7625 3.30625 7.40313 3.7375 6.82812 3.95312C6.75625 4.025 6.6125 4.025 6.46875 4.09687C5.96563 4.38437 5.31875 4.3125 4.8875 3.95312L3.88125 3.23438H3.80938L3.23438 3.80938V3.88125L3.95312 4.8875C4.3125 5.39063 4.38437 5.96563 4.09687 6.46875C4.025 6.6125 3.95312 6.75625 3.95312 6.9C3.7375 7.40313 3.30625 7.83437 2.73125 7.90625L1.50937 8.12188L1.4375 8.19375V9.05625L1.50937 9.12812L2.73125 9.34375C3.30625 9.41563 3.7375 9.775 3.95312 10.35L4.16875 10.7812C4.38438 11.2844 4.38437 11.9313 4.025 12.3625L3.30625 13.3688V13.4406L3.88125 14.0156L4.3125 14.5188L3.88125 13.9437L4.8875 13.225C5.175 13.0094 5.4625 12.9375 5.82188 12.9375V12.9375Z" fill="#242729"/>
<path d="M8.55313 12.2187C6.46876 12.2187 4.88751 10.6375 4.88751 8.62498C4.88751 6.61248 6.46876 4.95935 8.55313 4.95935C10.6375 4.95935 12.2188 6.5406 12.2188 8.62498C12.2188 10.7094 10.5656 12.2187 8.55313 12.2187ZM8.55313 6.39685C7.33126 6.39685 6.32501 7.4031 6.32501 8.62498C6.32501 9.84685 7.33126 10.8531 8.55313 10.8531C9.77501 10.8531 10.7813 9.84685 10.7813 8.62498C10.7094 7.4031 9.70313 6.39685 8.55313 6.39685Z" fill="#242729"/>
</svg>
