<svg width="48" height="48" viewBox="0 0 48 48" fill="none" xmlns="http://www.w3.org/2000/svg">
<path d="M41.2978 20.9504H27.2394C26.8834 20.9504 26.5949 21.2389 26.5949 21.5949C26.5949 21.951 26.8834 22.2395 27.2394 22.2395H41.2978C41.6538 22.2395 41.9423 21.951 41.9423 21.5949C41.9423 21.2389 41.6537 20.9504 41.2978 20.9504V20.9504Z" fill="#242729"/>
<path d="M41.9423 24.4804C41.9423 24.1243 41.6538 23.8358 41.2978 23.8358H27.2394C26.8834 23.8358 26.5949 24.1243 26.5949 24.4804C26.5949 24.8364 26.8834 25.1249 27.2394 25.1249H41.2978C41.6537 25.1249 41.9423 24.8363 41.9423 24.4804V24.4804Z" fill="#242729"/>
<path d="M27.2394 26.7214C26.8834 26.7214 26.5949 27.0099 26.5949 27.3659C26.5949 27.7219 26.8834 28.0104 27.2394 28.0104H34.2686C34.6247 28.0104 34.9131 27.7219 34.9131 27.3659C34.9131 27.0099 34.6247 26.7214 34.2686 26.7214H27.2394Z" fill="#242729"/>
<path d="M45.3295 15.6623C45.6856 15.6623 45.974 15.3738 45.974 15.0177V11.2206C45.974 10.6915 45.7907 10.1908 45.4547 9.79023C45.4541 9.78955 45.4536 9.78895 45.453 9.78826C45.4112 9.73841 45.3673 9.68995 45.3207 9.64337L38.3306 2.65321C38.2842 2.6068 38.2359 2.56323 38.1863 2.52147C38.1854 2.5207 38.1846 2.51992 38.1836 2.51923C37.7831 2.1833 37.2824 2 36.7535 2H17.7179C15.9806 2 14.5672 3.41341 14.5672 5.15073V7.05888H8.58539C7.98649 7.05888 7.49923 7.54606 7.49923 8.14496C7.49923 9.04962 7.76494 9.89284 8.22084 10.6029C7.76013 11.0973 7.49785 11.75 7.49785 12.4451V14.8529C7.19655 15.2348 7.03276 15.7034 7.0331 16.1974L7.03439 17.8659C7.03508 18.9085 7.88345 19.7564 8.92579 19.7563H8.92682H9.46848C9.65609 21.2949 10.3823 22.6992 11.5147 23.6777C11.7208 23.8559 11.9327 24.0191 12.1496 24.1695V25.5057C12.1496 25.6691 12.1081 25.83 12.0328 25.9735C11.7554 25.9546 11.4729 26.0018 11.2105 26.1197L9.99356 26.666C9.87523 26.7191 9.76926 26.7904 9.67611 26.8744C8.35886 27.3123 7.16862 27.8906 6.13875 28.5973C5.84527 28.7988 5.77068 29.1999 5.97212 29.4935C6.17295 29.7862 6.57419 29.8621 6.86827 29.6601C7.62323 29.142 8.47814 28.6992 9.41598 28.3366C9.45319 28.4072 9.49624 28.4755 9.54789 28.5391L11.1716 30.5404C11.6756 31.1614 12.4664 31.4609 13.2573 31.3135L14.1021 32.4219L12.1246 44.7109H8.05137V39.3254C8.05137 38.9694 7.76288 38.6809 7.40684 38.6809C7.0508 38.6809 6.76231 38.9694 6.76231 39.3254V44.7109H4.79177C3.96316 44.7109 3.28906 44.0368 3.28906 43.2082V36.3222C3.28906 34.5128 3.80091 32.9204 4.81033 31.5891C5.02534 31.3054 4.96974 30.9011 4.68615 30.686C4.40238 30.471 3.9983 30.5265 3.78312 30.8102C2.59993 32.3707 2 34.2252 2 36.3222V43.2082C2 44.7476 3.25245 46 4.79185 46H26.6215C28.1609 46 29.4133 44.7476 29.4133 43.2082V42.5502H42.9692C44.626 42.5502 45.974 41.2023 45.974 39.5455V18.0706C45.974 17.7145 45.6856 17.426 45.3295 17.426C44.9735 17.426 44.685 17.7145 44.685 18.0706V39.5455C44.685 40.4915 43.9153 41.2611 42.9692 41.2611H29.4133V36.3222C29.4133 31.543 26.2718 28.3813 21.7347 26.8721C21.4905 26.6531 21.358 26.657 20.2029 26.1196C19.9405 26.0017 19.658 25.9545 19.3807 25.9734C19.3052 25.8299 19.2638 25.669 19.2638 25.5056V24.1696C19.4806 24.0192 19.6926 23.8559 19.8989 23.6777C21.0313 22.6993 21.7575 21.2949 21.9452 19.7561C22.2607 19.7562 22.1717 19.7562 22.4878 19.7563C23.5303 19.7563 24.3788 18.9085 24.3796 17.8659L24.3808 16.1973C24.3811 15.7026 24.2168 15.2333 23.9146 14.8511L23.9144 12.0272C23.9142 9.28776 21.6854 7.05897 18.9458 7.05897H15.8563V5.15073C15.8563 4.1242 16.6914 3.28906 17.718 3.28906H36.7536C36.7577 3.28906 36.7617 3.28958 36.7659 3.28966V8.05748C36.7659 9.79479 38.1793 11.2082 39.9167 11.2082L44.6845 11.2081C44.6845 11.2122 44.6851 11.2164 44.6851 11.2205V15.0176C44.685 15.3737 44.9735 15.6623 45.3295 15.6623V15.6623ZM9.43368 14.022H9.20569C9.06346 14.0221 8.92347 14.0358 8.78691 14.0624V12.4451C8.78691 12.1301 8.89038 11.832 9.07463 11.5894C9.3254 11.8072 9.59919 11.999 9.89327 12.1585C9.63237 12.7464 9.47648 13.3767 9.43368 14.022V14.022ZM8.9263 18.4672C8.92622 18.4672 8.92613 18.4672 8.92605 18.4672C8.5939 18.4672 8.32354 18.1971 8.32337 17.8648L8.32208 16.1964C8.32173 15.7069 8.71773 15.3112 9.20594 15.311H9.4213V18.4671L8.9263 18.4672ZM12.1724 29.728L10.6099 27.8022L11.7384 27.2955C11.844 27.2481 11.9625 27.2458 12.068 27.2852C12.0693 27.2857 12.0706 27.2861 12.0719 27.2866C12.1852 27.3302 12.0636 27.2666 14.5619 29.2041L13.3172 29.9353C12.9403 30.1565 12.4565 30.0782 12.1724 29.728ZM15.7066 30.0267L16.9936 30.7827L16.3241 31.6065H15.1013L14.4566 30.7609L15.7066 30.0267ZM15.3315 32.8956H16.0817L17.9831 44.7109H13.4302L15.3315 32.8956ZM28.1242 36.3222V43.2082C28.1242 44.0368 27.45 44.7109 26.6215 44.7109H24.651V39.3254C24.651 38.9694 24.3625 38.6809 24.0064 38.6809C23.6504 38.6809 23.3619 38.9694 23.3619 39.3254V44.7109H19.2887L17.3131 32.4336L18.2155 31.3233C18.3276 31.341 18.4402 31.3509 18.5525 31.3509C19.1888 31.3509 19.8124 31.0698 20.242 30.5403L21.8657 28.539C21.9175 28.4752 21.9607 28.4067 21.998 28.3358C24.5935 29.3419 28.1242 31.5823 28.1242 36.3222ZM20.8034 27.8022L19.2409 29.728C18.9603 30.0739 18.4784 30.1598 18.0961 29.9352L16.8514 29.204C19.3772 27.245 19.2287 27.3298 19.3413 27.2865C19.3426 27.2861 19.3439 27.2856 19.3452 27.2851C19.4506 27.2457 19.5691 27.2481 19.6748 27.2954H19.6749L20.8034 27.8022ZM18.2088 26.5114L15.7066 28.462L13.2044 26.5114C13.3562 26.1999 13.4385 25.8552 13.4385 25.5055V24.8752C14.9969 25.5176 16.3528 25.5438 17.9747 24.8753V25.5055C17.9747 25.8553 18.057 26.2 18.2088 26.5114ZM19.056 22.7023C17.0272 24.4556 14.4967 24.5509 12.3575 22.7023C11.3485 21.8303 10.7484 20.5188 10.7105 19.1029V14.3875C10.7105 13.7685 10.8465 13.1611 11.1059 12.6061C11.4145 12.6722 11.7342 12.7078 12.0622 12.7078H19.1397C20.0018 12.7078 20.7032 13.4091 20.7032 14.2713V19.1029C20.6651 20.5188 20.065 21.8305 19.056 22.7023V22.7023ZM23.0904 17.8648C23.0902 18.1971 22.82 18.4672 22.4878 18.4672C22.4789 18.4672 21.9834 18.467 21.9922 18.467V15.311C22.1121 15.3302 22.4554 15.2229 22.8331 15.5708C22.9999 15.738 23.0917 15.96 23.0916 16.1964L23.0904 17.8648ZM22.6253 12.0272L22.6253 14.0623C22.3379 14.0065 22.1461 14.0263 21.9814 14.022C21.8547 12.5654 20.6286 11.4188 19.1397 11.4188H12.0622C10.3252 11.4188 8.89984 10.059 8.79465 8.34803H18.9458C20.9745 8.34794 22.6251 9.99846 22.6253 12.0272V12.0272ZM38.0548 8.05748V4.20052L43.7733 9.91905L39.9165 9.91914C38.89 9.91914 38.0548 9.08409 38.0548 8.05748V8.05748Z" fill="#242729"/>
<path d="M41.9423 14.9133C41.9423 14.3216 41.4609 13.8404 40.8693 13.8404H27.6679C27.0762 13.8404 26.5949 14.3217 26.5949 14.9133V18.1349C26.5949 18.7266 27.0763 19.208 27.6679 19.208H40.8692C41.4609 19.208 41.9422 18.7265 41.9422 18.1349V14.9133H41.9423ZM40.6533 17.9189H27.884V15.1294H40.6533V17.9189Z" fill="#242729"/>
</svg>
