<svg width="48" height="48" viewBox="0 0 48 48" fill="none" xmlns="http://www.w3.org/2000/svg">
<path d="M27.2948 25.5035C26.8608 25.5035 26.4512 25.5552 26.0726 25.6569C25.4468 25.1816 24.7372 24.9295 23.9933 24.9295C23.2497 24.9295 22.5401 25.1816 21.9143 25.6569C21.5353 25.5552 21.1258 25.5035 20.6914 25.5035C19.5917 25.5035 18.5745 26.099 17.8269 27.1803C17.1297 28.1891 16.7457 29.5187 16.7457 30.9243C16.7457 31.2801 17.034 31.5688 17.3902 31.5688C17.746 31.5688 18.0347 31.2801 18.0347 30.9243C18.0347 28.6845 19.2513 26.7929 20.6914 26.7929C20.7471 26.7929 20.8018 26.7939 20.8559 26.7963C20.112 27.8936 19.7025 29.3301 19.7025 30.8488C19.7025 31.2046 19.9908 31.4933 20.347 31.4933C20.7032 31.4933 20.9915 31.2046 20.9915 30.8488C20.9915 28.3388 22.3662 26.2185 23.9936 26.2185C25.6207 26.2185 26.9954 28.3391 26.9954 30.8488C26.9954 31.2046 27.2838 31.4933 27.6399 31.4933C27.9958 31.4933 28.2845 31.2046 28.2845 30.8488C28.2845 29.3301 27.8746 27.8936 27.131 26.7963C27.1851 26.7939 27.2394 26.7926 27.2952 26.7926C28.7353 26.7926 29.9518 28.6845 29.9518 30.924C29.9518 31.2801 30.2405 31.5685 30.5964 31.5685C30.9525 31.5685 31.2409 31.2801 31.2409 30.924C31.2409 29.5184 30.8569 28.1891 30.16 27.1803C29.4124 26.099 28.3949 25.5035 27.2948 25.5035V25.5035Z" fill="#242729"/>
<path d="M20.6914 24.5522C21.5454 24.5522 22.3488 24.1792 22.9016 23.5515C23.2424 23.676 23.6103 23.7441 23.9933 23.7441C24.3767 23.7441 24.7443 23.676 25.0853 23.5511C25.6375 24.1792 26.4409 24.5518 27.2949 24.5518C28.9179 24.5518 30.2382 23.2319 30.2382 21.6091C30.2382 19.9857 28.9179 18.6654 27.2949 18.6654C27.0599 18.6654 26.8303 18.6933 26.607 18.7467C26.0313 17.9202 25.0749 17.3777 23.9933 17.3777C22.912 17.3777 21.955 17.9202 21.3796 18.747C21.1557 18.6933 20.9258 18.6654 20.6914 18.6654C19.0687 18.6654 17.7484 19.9861 17.7484 21.6091C17.7484 23.2319 19.0687 24.5522 20.6914 24.5522V24.5522ZM27.1767 20.5611C27.1767 20.3567 27.1566 20.1573 27.1196 19.9636C27.1774 19.9575 27.2358 19.9545 27.2949 19.9545C28.2069 19.9545 28.9492 20.6967 28.9492 21.6091C28.9492 22.5209 28.2069 23.2631 27.2949 23.2631C26.887 23.2631 26.4999 23.1117 26.2022 22.8499C26.8024 22.2708 27.1767 21.4591 27.1767 20.5611ZM23.9933 18.6668C25.038 18.6668 25.8876 19.5164 25.8876 20.5611C25.8876 21.6054 25.038 22.4551 23.9933 22.4551C23.6355 22.4551 23.3001 22.3554 23.0141 22.1818C23.0128 22.1812 23.0117 22.1801 23.0104 22.1795C23.0101 22.1791 23.0097 22.1791 23.0094 22.1788C22.4642 21.8461 22.099 21.2452 22.099 20.5611C22.099 19.5164 22.949 18.6668 23.9933 18.6668ZM20.6914 19.9545C20.7505 19.9545 20.8089 19.9579 20.867 19.9639C20.8301 20.1573 20.8099 20.357 20.8099 20.5611C20.8099 21.4591 21.1842 22.2708 21.7845 22.8499C21.4867 23.1117 21.099 23.2631 20.6914 23.2631C19.7794 23.2631 19.0375 22.5212 19.0375 21.6091C19.0375 20.6967 19.7794 19.9545 20.6914 19.9545Z" fill="#242729"/>
<path d="M40.3983 31.3076C40.9529 29.5963 41.2345 27.8114 41.2345 25.9923C41.2345 24.1782 40.9545 22.398 40.403 20.6907C43.6626 19.4594 45.9872 16.3072 45.9872 12.6219C45.9872 7.86786 42.1194 4 37.365 4C33.6794 4 30.5272 6.32434 29.2959 9.58359C27.5882 9.03204 25.8077 8.75174 23.9936 8.75174C22.1789 8.75174 20.398 9.03204 18.6893 9.58426C18.3543 8.69366 17.8739 7.85779 17.2593 7.11758C17.032 6.84366 16.6255 6.80606 16.3516 7.03333C16.0776 7.26093 16.04 7.66711 16.2676 7.94104C17.3563 9.25226 17.9558 10.9146 17.9558 12.6216C17.9558 16.665 14.666 19.9545 10.6226 19.9545C6.57886 19.9545 3.28906 16.665 3.28906 12.6216C3.28906 8.57852 6.57886 5.28906 10.6223 5.28906C11.6962 5.28906 12.7308 5.51566 13.6976 5.9628C14.0208 6.11218 14.4039 5.97153 14.5529 5.64825C14.7023 5.32532 14.5616 4.94229 14.2387 4.79291C13.1014 4.26688 11.8845 4 10.6223 4C5.86786 4 2 7.86786 2 12.6216C2 16.3069 4.32434 19.4587 7.58359 20.6903C7.03204 22.3977 6.75208 24.1779 6.75208 25.9923C6.75208 27.8114 7.03372 29.5963 7.58829 31.308C4.32635 32.5383 2 35.6915 2 39.3784C2 44.1321 5.86786 48 10.6223 48C12.0862 48 13.5327 47.6264 14.805 46.9194C15.1162 46.7462 15.2283 46.3541 15.0555 46.0429C14.8826 45.7317 14.4901 45.6196 14.179 45.7925C13.0977 46.3934 11.8677 46.7109 10.6223 46.7109C6.57886 46.7109 3.28906 43.4215 3.28906 39.3784C3.28906 35.335 6.57886 32.0455 10.6223 32.0455C14.666 32.0455 17.9555 35.335 17.9555 39.3784C17.9555 40.0729 17.8598 40.75 17.6752 41.3983C17.6718 41.4097 17.6682 41.4211 17.6655 41.4328C17.3999 42.3479 16.9555 43.205 16.3412 43.969C16.1179 44.2466 16.1622 44.6521 16.4395 44.8754C16.7168 45.0983 17.1227 45.0543 17.3456 44.7767C17.9219 44.06 18.3745 43.2553 18.6944 42.401C20.401 42.9522 22.1802 43.2318 23.9936 43.2318C25.806 43.2318 27.5845 42.9525 29.2902 42.402C30.5178 45.6689 33.674 48 37.365 48C42.1194 48 45.9872 44.1321 45.9872 39.3784C45.9872 35.6911 43.6606 32.5376 40.3983 31.3076V31.3076ZM28.929 41.1639C27.3405 41.6802 25.6835 41.9427 23.9936 41.9427C22.3034 41.9427 20.6454 41.6802 19.0562 41.1633C19.1805 40.5788 19.2446 39.9806 19.2446 39.3781C19.2446 34.624 15.3767 30.7564 10.6223 30.7564C10.0063 30.7564 9.4054 30.8219 8.82565 30.9451C8.30533 29.3512 8.04114 27.6882 8.04114 25.9923C8.04114 24.3014 8.30365 22.6431 8.82095 21.0536C9.40204 21.1778 10.0046 21.2436 10.6223 21.2436C15.3767 21.2436 19.2446 17.3757 19.2446 12.6216C19.2446 12.0133 19.1788 11.4101 19.0529 10.8216C20.6431 10.3036 22.3021 10.0408 23.9936 10.0408C25.6842 10.0408 27.3425 10.3033 28.9323 10.8206C28.8081 11.4017 28.7423 12.0043 28.7423 12.6216C28.7423 14.8637 29.5987 16.9873 31.1536 18.6017C31.4007 18.8581 31.8086 18.8658 32.065 18.6188C32.3215 18.372 32.3292 17.9638 32.0822 17.7077C30.7599 16.3347 30.0314 14.5284 30.0314 12.6216C30.0317 8.57852 33.3212 5.28906 37.365 5.28906C41.4084 5.28906 44.6982 8.57852 44.6982 12.6216C44.6982 16.665 41.4084 19.9545 37.365 19.9545C36.3032 19.9545 35.2796 19.7329 34.3226 19.2959C33.9986 19.1478 33.6163 19.2908 33.4686 19.6144C33.3205 19.9384 33.4632 20.3204 33.7871 20.4684C34.9134 20.9827 36.1172 21.2436 37.365 21.2436C37.9823 21.2436 38.5845 21.1781 39.1656 21.0539C39.6826 22.6434 39.9454 24.3017 39.9454 25.9923C39.9454 27.6882 39.6809 29.3512 39.1606 30.9451C38.5812 30.8219 37.9806 30.7564 37.365 30.7564C32.6105 30.7564 28.7427 34.6243 28.7427 39.3784C28.7427 39.9904 28.8071 40.5876 28.929 41.1639V41.1639ZM37.365 46.7109C33.3212 46.7109 30.0317 43.4215 30.0317 39.3784C30.0317 35.335 33.3212 32.0455 37.365 32.0455C41.4084 32.0455 44.6982 35.335 44.6982 39.3784C44.6982 43.4215 41.4084 46.7109 37.365 46.7109V46.7109Z" fill="#242729"/>
<path d="M13.5754 9.20962C12.6902 8.51708 11.4068 8.52514 10.5273 9.28951C10.0704 9.68697 9.78474 10.2365 9.71827 10.83C8.77263 10.6894 7.91795 10.169 7.35734 9.37042C7.22407 9.18041 6.99849 9.07702 6.76753 9.09951C6.53657 9.122 6.33516 9.26702 6.24083 9.47918C6.22236 9.52081 5.78898 10.5118 5.84404 11.7246C5.886 12.6528 6.21833 13.8492 7.42918 14.7731C6.99311 14.9137 6.53321 14.9788 6.07365 14.9604C5.77757 14.949 5.50801 15.143 5.42744 15.4303C5.34687 15.7177 5.4741 16.0228 5.73494 16.1679C6.74604 16.7295 7.82933 17.0108 8.88777 17.0108C9.90458 17.0108 10.8982 16.7513 11.7825 16.231C13.5166 15.2105 14.5113 13.3437 14.5113 11.1066C14.511 11.0731 14.5103 11.0395 14.5086 11.0059C14.8769 10.5722 15.1394 10.0583 15.2747 9.50268C15.3385 9.24151 15.2334 8.96859 15.0112 8.81719C14.7893 8.66613 14.4969 8.66848 14.277 8.82324C14.0574 8.97833 13.8225 9.10757 13.5754 9.20962ZM13.2024 10.9059C13.2152 10.973 13.2219 11.0422 13.2222 11.109C13.2222 12.9009 12.4787 14.3252 11.1289 15.1198C10.3494 15.5784 9.45442 15.7741 8.54301 15.7076C8.75181 15.6042 8.95356 15.4867 9.14625 15.3558C9.33995 15.2246 9.44737 14.9983 9.42656 14.7653C9.40574 14.532 9.26005 14.3286 9.04622 14.2336C7.84242 13.6985 7.1989 12.8482 7.13377 11.7055C7.12034 11.4719 7.13209 11.2469 7.15727 11.0415C8.04384 11.7824 9.17915 12.1862 10.3648 12.1557C10.7143 12.1469 10.9926 11.8609 10.9926 11.5115V11.1207C10.9926 11.118 10.9926 11.115 10.9926 11.1123C10.9882 10.786 11.1268 10.4762 11.3729 10.2624C11.8338 9.86187 12.5341 9.91055 12.9346 10.3711C13.0148 10.4634 13.1175 10.5289 13.23 10.5638C13.1904 10.6716 13.1799 10.7897 13.2024 10.9059Z" fill="#242729"/>
<path d="M35.244 13.1302H36.1581V16.9735C36.1581 17.3294 36.4465 17.6181 36.8026 17.6181C37.1585 17.6181 37.4472 17.3294 37.4472 16.9735V13.1302H38.4422C38.798 13.1302 39.0867 12.8415 39.0867 12.4857C39.0867 12.1298 38.798 11.8411 38.4422 11.8411H37.4472V10.0378C37.4472 9.41843 37.951 8.91489 38.5704 8.91489H39.4046C39.7604 8.91489 40.0491 8.62619 40.0491 8.27036C40.0491 7.91418 39.7604 7.62582 39.4046 7.62582H38.5704C37.2401 7.62582 36.1581 8.70776 36.1581 10.0378V11.8411H35.244C34.8878 11.8411 34.5995 12.1295 34.5995 12.4857C34.5995 12.8415 34.8878 13.1302 35.244 13.1302Z" fill="#242729"/>
<path d="M40.4728 38.523L36.0853 35.9889C35.812 35.8311 35.472 35.8308 35.1987 35.9889C34.9251 36.1467 34.7552 36.4411 34.7552 36.7569V41.8249C34.7552 42.1408 34.9251 42.4352 35.1987 42.5933C35.3353 42.6722 35.4884 42.7115 35.6418 42.7115C35.7952 42.7115 35.9486 42.6722 36.0853 42.593L40.4728 40.0588C40.746 39.9011 40.9159 39.6066 40.9159 39.2908C40.9159 38.9752 40.746 38.6808 40.4728 38.523V38.523ZM36.0443 41.128V37.4538L39.225 39.2908L36.0443 41.128Z" fill="#242729"/>
<path d="M7.5477 34.8133C6.57486 34.8133 5.78296 35.6049 5.78296 36.578V42.1784C5.78296 43.1516 6.57486 43.9431 7.5477 43.9431H13.1487C14.1219 43.9431 14.9135 43.1516 14.9135 42.1784V36.578C14.9135 35.6049 14.1219 34.8133 13.1487 34.8133H7.5477ZM13.6244 36.578V42.1784C13.6244 42.4406 13.4109 42.6541 13.1487 42.6541H7.5477C7.28552 42.6541 7.07202 42.4406 7.07202 42.1784V36.578C7.07202 36.3155 7.28552 36.1024 7.5477 36.1024H13.1487C13.4109 36.1024 13.6244 36.3159 13.6244 36.578Z" fill="#242729"/>
<path d="M10.3481 37.43C9.27383 37.43 8.40002 38.3038 8.40002 39.3781C8.40002 40.4523 9.27417 41.3264 10.3484 41.3264C11.4226 41.3264 12.2964 40.4523 12.2964 39.3781C12.2964 38.3038 11.4226 37.43 10.3481 37.43V37.43ZM10.3484 40.0374H10.3481C9.98483 40.0374 9.68909 39.7416 9.68909 39.3784C9.68909 39.0148 9.98483 38.7191 10.3484 38.7191C10.7116 38.7191 11.0074 39.0148 11.0074 39.3784C11.0074 39.7416 10.7116 40.0374 10.3484 40.0374Z" fill="#242729"/>
</svg>
