<svg width="48" height="48" viewBox="0 0 48 48" fill="none" xmlns="http://www.w3.org/2000/svg">
<path d="M37.6506 24.6445H39.5668C39.8666 26.1282 41.1805 27.2489 42.7512 27.2489C44.5426 27.2489 46 25.7915 46 24C46 22.2085 44.5426 20.7511 42.7511 20.7511C41.1804 20.7511 39.8666 21.8718 39.5667 23.3555H37.6505C37.4973 20.0724 36.1807 17.0883 34.1038 14.8076L37.5554 11.3561C38.2349 11.8508 39.0703 12.1438 39.9732 12.1438C42.2433 12.1438 44.0901 10.2969 44.0901 8.0268C44.0901 5.75667 42.2433 3.90988 39.9732 3.90988C37.7031 3.90988 35.8563 5.75676 35.8563 8.0268C35.8563 8.92974 36.1492 9.76514 36.644 10.4446L33.1924 13.8961C30.9117 11.8193 27.9276 10.5027 24.6445 10.3495V8.43328C26.1282 8.13345 27.2489 6.81963 27.2489 5.24887C27.2489 3.45741 25.7915 2 24 2C22.2085 2 20.7511 3.45741 20.7511 5.24887C20.7511 6.81963 21.8718 8.13345 23.3555 8.43328V10.3494C20.0724 10.5027 17.0883 11.8192 14.8076 13.896L11.3563 10.4447C11.8511 9.76523 12.1441 8.92974 12.1441 8.0268C12.1441 6.65592 11.4651 5.37932 10.3278 4.6119C10.0325 4.41287 9.63194 4.49055 9.43299 4.78566C9.23388 5.08077 9.31165 5.48133 9.60667 5.68045C10.3884 6.20784 10.8549 7.08501 10.8549 8.0268C10.8549 9.58622 9.58613 10.855 8.02671 10.855C6.46729 10.855 5.19859 9.58622 5.19859 8.0268C5.19859 6.76747 6.04379 5.64813 7.25396 5.30481C7.59642 5.20762 7.79528 4.85123 7.69809 4.50877C7.60089 4.16631 7.24434 3.96771 6.90213 4.06465C5.14007 4.56463 3.90953 6.19392 3.90953 8.0268C3.90953 10.2971 5.7565 12.1441 8.0268 12.1441C8.92983 12.1441 9.76531 11.8511 10.4447 11.3563L13.8961 14.8075C11.8192 17.0882 10.5027 20.0723 10.3494 23.3554H8.43328C8.13345 21.8717 6.81963 20.751 5.24887 20.751C3.45741 20.7511 2 22.2085 2 24C2 25.7915 3.45741 27.2489 5.24887 27.2489C6.81963 27.2489 8.13345 26.1282 8.43328 24.6445H10.3495C10.5027 27.9276 11.8193 30.9117 13.8962 33.1924L10.4446 36.6439C9.76514 36.1492 8.92974 35.8562 8.0268 35.8562C5.75667 35.8562 3.90988 37.7031 3.90988 39.9732C3.90988 42.2433 5.75667 44.0901 8.0268 44.0901C10.2969 44.0901 12.1437 42.2432 12.1437 39.9732C12.1437 39.0703 11.8508 38.2349 11.356 37.5554L14.8076 34.1039C17.0883 36.1807 20.0724 37.4973 23.3555 37.6505V39.5666C21.8718 39.8665 20.7511 41.1803 20.7511 42.751C20.7511 44.5426 22.2085 46 24 46C25.7915 46 27.2489 44.5426 27.2489 42.7511C27.2489 41.1804 26.1282 39.8666 24.6445 39.5667V37.6506C27.9276 37.4973 30.9117 36.1808 33.1924 34.104L36.6437 37.5553C36.1489 38.2348 35.8559 39.0703 35.8559 39.9732C35.8559 42.2434 37.7029 44.0905 39.9732 44.0905C42.2435 44.0905 44.0905 42.2435 44.0905 39.9732C44.0905 39.5275 44.0195 39.0886 43.8795 38.6685C43.7668 38.3309 43.4017 38.1483 43.0643 38.2608C42.7266 38.3734 42.544 38.7384 42.6566 39.0761C42.7527 39.3644 42.8015 39.6663 42.8015 39.9731C42.8015 41.5325 41.5327 42.8013 39.9733 42.8013C38.4139 42.8013 37.1451 41.5326 37.1451 39.9731C37.1451 38.4136 38.4139 37.1449 39.9733 37.1449C40.3302 37.1449 40.6782 37.2106 41.0077 37.3401C41.3387 37.4703 41.7131 37.3073 41.8434 36.976C41.9736 36.6447 41.8105 36.2706 41.4793 36.1403C40.999 35.9516 40.4924 35.8559 39.9734 35.8559C39.0703 35.8559 38.2349 36.1488 37.5554 36.6436L34.1041 33.1924C36.1807 30.9117 37.4973 27.9276 37.6506 24.6445V24.6445ZM42.7511 22.0402C43.8318 22.0402 44.7109 22.9193 44.7109 24C44.7109 25.0807 43.8318 25.9598 42.7511 25.9598C41.6705 25.9598 40.7913 25.0807 40.7913 24C40.7913 22.9193 41.6706 22.0402 42.7511 22.0402ZM39.9732 5.19894C41.5325 5.19894 42.8011 6.46755 42.8011 8.0268C42.8011 9.58613 41.5325 10.8547 39.9732 10.8547C38.414 10.8547 37.1453 9.58613 37.1453 8.0268C37.1453 6.46746 38.414 5.19894 39.9732 5.19894V5.19894ZM22.0402 5.24887C22.0402 4.1682 22.9194 3.28906 24 3.28906C25.0806 3.28906 25.9598 4.1682 25.9598 5.24887C25.9598 6.32953 25.0806 7.20867 24 7.20867C22.9194 7.20867 22.0402 6.32945 22.0402 5.24887ZM5.24887 25.9598C4.1682 25.9598 3.28906 25.0807 3.28906 24C3.28906 22.9193 4.1682 22.0402 5.24887 22.0402C6.32953 22.0402 7.20859 22.9193 7.20859 24C7.20859 25.0807 6.32945 25.9598 5.24887 25.9598ZM24 11.6229C30.8247 11.6229 36.3771 17.1753 36.3771 24C36.3771 30.8247 30.8247 36.3771 24 36.3771C17.1753 36.3771 11.6229 30.8248 11.6229 24C11.6229 17.1752 17.1753 11.6229 24 11.6229ZM8.0268 42.8011C6.46746 42.8011 5.19894 41.5325 5.19894 39.9732C5.19894 38.4139 6.46755 37.1453 8.0268 37.1453C9.58605 37.1453 10.8547 38.4139 10.8547 39.9732C10.8547 41.5325 9.58605 42.8011 8.0268 42.8011ZM25.9598 42.7511C25.9598 43.8318 25.0806 44.7109 24 44.7109C22.9194 44.7109 22.0402 43.8318 22.0402 42.7511C22.0402 41.6705 22.9194 40.7913 24 40.7913C25.0806 40.7913 25.9598 41.6706 25.9598 42.7511Z" fill="#242729"/>
<path d="M16.7082 31.9363H20.3481C20.3501 31.9363 20.352 31.9366 20.3539 31.9366C20.3559 31.9366 20.3578 31.9363 20.3598 31.9363H22.4961C22.8521 31.9363 23.1406 31.6478 23.1406 31.2918C23.1406 30.9358 22.8521 30.6473 22.4961 30.6473H20.9985V29.5559C20.9985 29.1999 20.71 28.9113 20.3539 28.9113C19.9979 28.9113 19.7094 29.1999 19.7094 29.5559V30.6473H17.3527V27.4727C17.3527 25.9133 18.6211 24.6445 20.18 24.6445H27.8198C29.3788 24.6445 30.6471 25.9133 30.6471 27.4727V30.6473H28.2904V29.5559C28.2904 29.1999 28.0019 28.9113 27.6459 28.9113C27.2899 28.9113 27.0014 29.1999 27.0014 29.5559V30.6473H25.5039C25.1479 30.6473 24.8594 30.9358 24.8594 31.2918C24.8594 31.6478 25.1479 31.9363 25.5039 31.9363H27.6402C27.6422 31.9363 27.6441 31.9366 27.6461 31.9366C27.6481 31.9366 27.6499 31.9363 27.6519 31.9363H31.2918C31.6478 31.9363 31.9363 31.6478 31.9363 31.2918V27.4727C31.9363 25.2024 30.0898 23.3555 27.82 23.3555H27.3415C28.3503 22.4426 28.9852 21.1238 28.9852 19.6595C28.9852 16.9107 26.7489 14.6744 24.0001 14.6744C21.2513 14.6744 19.015 16.9107 19.015 19.6595C19.015 21.1238 19.6499 22.4426 20.6587 23.3555H20.1802C17.9104 23.3555 16.0638 25.2024 16.0638 27.4727V31.2918C16.0637 31.6478 16.3522 31.9363 16.7082 31.9363V31.9363ZM20.304 19.6595C20.304 17.6215 21.962 15.9635 24 15.9635C26.038 15.9635 27.696 17.6215 27.696 19.6595C27.696 21.6975 26.038 23.3555 24 23.3555C21.962 23.3555 20.304 21.6975 20.304 19.6595V19.6595Z" fill="#242729"/>
</svg>
