<svg width="48" height="48" viewBox="0 0 48 48" fill="none" xmlns="http://www.w3.org/2000/svg">
<path d="M12.2843 41.1383C11.4548 41.1383 11.4534 42.4274 12.2843 42.4274C13.1137 42.4274 13.1151 41.1383 12.2843 41.1383Z" fill="#242729"/>
<path d="M32.2219 42.4274C33.0514 42.4274 33.0528 41.1383 32.2219 41.1383C31.3925 41.1383 31.3911 42.4274 32.2219 42.4274Z" fill="#242729"/>
<path d="M43.8818 7.24068H39.4622C37.6695 7.24068 36.1684 8.52974 35.8931 10.3056L35.5797 12.3262L30.1776 13.3381L31.3649 5.78756C31.5125 4.86579 30.8826 3.99576 29.9609 3.8483L18.5492 2.02144C17.6271 1.87388 16.7574 2.5038 16.6098 3.42566L16.2235 5.84333L12.2822 6.57904C11.4752 6.72961 11.7369 7.99237 12.5187 7.84619L16.0074 7.19496L15.51 10.3075H12.8159C11.8823 10.3075 11.1229 11.067 11.1229 12.0005V16.9074L7.83269 17.5238L6.31237 9.41128C6.27207 9.19463 6.41559 8.98538 6.63232 8.9449L9.01622 8.49992C9.83547 8.34703 9.59897 7.0804 8.77964 7.23277L6.39573 7.67775C5.48084 7.84851 4.87498 8.73186 5.04523 9.64778L6.56572 17.761L4.04002 18.2341C2.7097 18.4429 1.78158 19.778 2.04472 21.1002L4.00418 30.9446C4.34716 32.6682 5.86851 33.9191 7.62146 33.9191H31.2334L26.8403 37.5949C26.4127 37.9527 25.8706 38.1498 25.3139 38.1498H14.4223C14.4204 38.1498 14.4185 38.15 14.4166 38.15C13.7909 37.7794 13.0622 37.5658 12.2843 37.5658C11.5065 37.5658 10.7779 37.7793 10.1524 38.1498H6.11807C3.40142 38.1498 3.39738 42.3905 6.11807 42.3905H8.12213C8.15358 42.6087 8.20162 42.8238 8.26676 43.0344C8.51323 43.8304 9.74463 43.4492 9.49816 42.6531C9.41128 42.3726 9.36728 42.0798 9.36728 41.7828C9.36728 40.1683 10.6758 38.8548 12.2842 38.8548C13.8926 38.8548 15.2011 40.1683 15.2011 41.7828C15.2011 43.3973 13.8927 44.7109 12.2843 44.7109C11.8421 44.7109 11.4177 44.6143 11.023 44.4239C10.2725 44.0621 9.7124 45.2229 10.463 45.585C11.0339 45.8604 11.6466 46 12.2843 46C14.3849 46 16.1307 44.448 16.441 42.4275H28.0651C28.3754 44.4479 30.1213 45.9999 32.2219 45.9999C34.541 45.9999 36.4278 44.1082 36.4278 41.7829C36.4278 39.71 34.928 37.9829 32.9596 37.6321L35.7777 19.5435C35.9047 18.7199 34.6308 18.5234 34.5037 19.347L32.4308 32.63H7.62146C6.48141 32.63 5.49176 31.8154 5.26841 30.693L3.30903 20.8486C3.18038 20.2024 3.64848 19.621 4.26732 19.503L35.3702 13.6769L34.963 16.205C34.8292 17.0275 36.1015 17.2346 36.2354 16.412L37.1669 10.5031C37.3098 9.58127 37.9652 8.86403 38.8177 8.62023V9.40303C38.8177 10.549 39.7481 11.4813 40.8915 11.4813H43.8818C46.5985 11.4814 46.6025 7.24068 43.8818 7.24068V7.24068ZM5.29144 40.2702C5.29144 39.8118 5.66226 39.4389 6.11816 39.4389H8.78987C8.46098 39.9302 8.2329 40.4943 8.13408 41.1016H6.11807C5.66226 41.1015 5.29144 40.7286 5.29144 40.2702ZM27.6676 38.5836L32.0803 34.8913L31.6595 37.6046C29.8164 37.8529 28.3473 39.3014 28.0651 41.1383H16.441C16.3456 40.517 16.1142 39.9401 15.7786 39.4389H25.3138C26.1724 39.4388 27.0083 39.1351 27.6676 38.5836V38.5836ZM35.1388 41.7829C35.1388 43.3974 33.8303 44.7109 32.222 44.7109C30.6136 44.7109 29.3051 43.3974 29.3051 41.7829C29.3051 40.1684 30.6136 38.8549 32.222 38.8549C33.8303 38.8548 35.1388 40.1684 35.1388 41.7829V41.7829ZM17.8827 3.62924C17.918 3.40933 18.1258 3.25919 18.3454 3.29426L29.7571 5.12111C29.9771 5.15635 30.1274 5.36389 30.0919 5.58552L28.8331 13.59L22.9316 14.6954V12.0005C22.9316 11.067 22.1722 10.3075 21.2387 10.3075H16.8155L17.8827 3.62924ZM12.412 12.0005C12.412 11.7777 12.5932 11.5966 12.8159 11.5966H21.2388C21.4615 11.5966 21.6427 11.7777 21.6427 12.0005V14.9369L12.412 16.6659V12.0005ZM43.8818 10.1924H40.8915C40.4588 10.1924 40.1068 9.83831 40.1068 9.40312V8.52974H43.8818C44.9512 8.52974 44.9512 10.1924 43.8818 10.1924Z" fill="#242729"/>
<path d="M8.09918 28.5117C7.26585 28.5117 7.26585 29.8007 8.09918 29.8007H29.9273C30.7606 29.8007 30.7606 28.5117 29.9273 28.5117H8.09918Z" fill="#242729"/>
<path d="M31.2593 25.7187C31.2593 25.3627 30.9707 25.0742 30.6148 25.0742H7.23981C6.40647 25.0742 6.40647 26.3632 7.23981 26.3632H30.6148C30.9707 26.3632 31.2593 26.0746 31.2593 25.7187Z" fill="#242729"/>
</svg>
