<svg width="48" height="48" viewBox="0 0 48 48" fill="none" xmlns="http://www.w3.org/2000/svg">
<path d="M38.0567 7.7866C37.0962 7.52801 36.0919 7.66061 35.2292 8.15991C33.451 9.18918 32.8348 11.4762 33.8556 13.2583C34.3506 14.1225 35.1519 14.7407 36.1119 14.9992C36.4329 15.0857 36.7586 15.1284 37.0824 15.1284C37.7277 15.1284 38.3651 14.9585 38.9396 14.626C40.7179 13.5967 41.334 11.3097 40.3133 9.5276C39.8182 8.66333 39.0167 8.0451 38.0567 7.7866V7.7866ZM38.2938 13.5103C37.7299 13.8365 37.0741 13.9232 36.447 13.7545C35.8204 13.5858 35.2973 13.1821 34.974 12.6177C34.3049 11.4495 34.709 9.95033 35.8748 9.27555C36.2504 9.05821 36.6668 8.94718 37.0885 8.94718C37.2997 8.94718 37.5123 8.97503 37.7215 9.03132C38.348 9.20001 38.8712 9.60374 39.1946 10.1682C39.8637 11.3364 39.4596 12.8356 38.2938 13.5103Z" fill="#242729"/>
<path d="M45.4686 13.3588L44.27 12.3261C44.3645 11.6154 44.3538 10.9027 44.2384 10.1989L45.3677 9.22983C45.8673 8.80109 45.9927 8.07543 45.6657 7.50438L44.6289 5.69445C44.3004 5.12108 43.6098 4.86472 42.9871 5.08498L41.4971 5.61169C40.934 5.17934 40.3147 4.83551 39.6484 4.58526L39.3795 3.12174C39.2602 2.47162 38.6947 2 38.035 2C38.0349 2 38.0347 2 38.0347 2L35.9522 2.00026C35.294 2.00043 34.7274 2.47102 34.6051 3.11908L34.3103 4.68108C33.6615 4.95315 33.0374 5.3293 32.4931 5.77669L31.0972 5.28272C30.476 5.06307 29.7852 5.3183 29.4547 5.8903L28.409 7.7004C28.0791 8.27146 28.2015 8.99763 28.7001 9.42714L29.8987 10.4599C29.8043 11.1705 29.8149 11.8831 29.9304 12.5871L28.8011 13.5561C28.3015 13.9848 28.1761 14.7105 28.5031 15.2815L29.5397 17.0914C29.8682 17.6648 30.5584 17.9213 31.1816 17.7009L32.6716 17.1742C33.2348 17.6066 33.8541 17.9504 34.5203 18.2007L34.7892 19.6644C34.9087 20.3143 35.4743 20.7859 36.1341 20.7859L38.2165 20.7857C38.8747 20.7855 39.4412 20.3149 39.5636 19.6668L39.8583 18.1048C40.5069 17.8326 41.1314 17.4565 41.6756 17.0091L43.0717 17.5031C43.6929 17.7229 44.3837 17.4673 44.714 16.8955L45.7597 15.0853C46.0896 14.5144 45.967 13.7883 45.4686 13.3588V13.3588ZM44.6436 14.4406L43.5978 16.2507C43.578 16.285 43.5376 16.3005 43.5016 16.288L41.7519 15.6688C41.5272 15.5892 41.2769 15.6402 41.1013 15.8013C40.5149 16.3389 39.8215 16.7583 39.0731 17.0277C38.8582 17.105 38.7003 17.2902 38.658 17.5146L38.2969 19.4278C38.2894 19.4676 38.2555 19.4966 38.2163 19.4966L36.1341 19.4969C36.0964 19.4969 36.0641 19.4693 36.0571 19.4313L35.7203 17.598C35.6771 17.3634 35.5078 17.1717 35.2804 17.0998C34.5166 16.8588 33.8218 16.4739 33.2154 15.9561C33.0147 15.8029 32.8036 15.7637 32.582 15.8386L30.7519 16.4854C30.716 16.4982 30.6775 16.4839 30.6584 16.4506L29.6217 14.6408C29.6016 14.6057 29.6094 14.5609 29.6405 14.5342L31.0532 13.322C31.2333 13.1675 31.3138 12.9265 31.263 12.6947C31.0916 11.9134 31.0789 11.1154 31.2251 10.3228C31.2667 10.0975 31.1856 9.86697 31.0121 9.71753L29.5415 8.45055C29.5116 8.42477 29.5048 8.38051 29.5252 8.34519L30.5709 6.53509C30.5907 6.50089 30.6311 6.48533 30.6672 6.49779L32.4169 7.11697C32.6415 7.19638 32.8918 7.14542 33.0676 6.98437C33.6537 6.44683 34.3472 6.02711 35.0955 5.75804C35.3104 5.68079 35.4684 5.49551 35.5108 5.27112L35.8719 3.3579C35.8793 3.31802 35.9133 3.28906 35.9525 3.28906H38.0349C38.0725 3.28906 38.1047 3.31656 38.1117 3.35463L38.4485 5.18794C38.4917 5.42254 38.661 5.61427 38.8884 5.68611C39.6523 5.92725 40.3471 6.312 40.9534 6.82986C41.1284 6.97913 41.3697 7.02399 41.5868 6.94733L43.4169 6.3004C43.4532 6.28768 43.4913 6.30211 43.5104 6.33529L44.5471 8.14513C44.5672 8.18019 44.5594 8.22505 44.5283 8.25169L43.1156 9.46392C42.9355 9.61844 42.855 9.85941 42.9058 10.0912C43.0771 10.8724 43.0899 11.6704 42.9436 12.4631C42.902 12.6885 42.9831 12.919 43.1566 13.0684L44.6272 14.3354C44.657 14.3611 44.6639 14.4054 44.6436 14.4406V14.4406Z" fill="#242729"/>
<path d="M11.3242 25.2138C11.3238 24.0691 10.3738 23.0572 9.21166 23.0624L8.84883 23.0615L8.84616 19.8379C8.84522 18.8589 7.31845 19.0898 7.55727 20.0025L7.55977 23.0581C6.94265 23.0565 6.32545 23.0548 5.70833 23.0532L5.69914 12.0065C5.69905 11.8923 5.66863 11.7801 5.61105 11.6816L4.07621 9.05701L4.07535 5.59502L9.17109 5.61874L9.17195 9.03922L7.63806 11.676C7.58065 11.7745 7.55049 11.8865 7.55057 12.0005L7.5541 16.25C7.33839 17.1469 8.8441 17.3055 8.84324 16.4017L8.8398 12.1737L10.3736 9.53714C10.4309 9.43866 10.4611 9.32677 10.4611 9.2129L10.4594 2.64436C10.4594 2.31195 10.1524 2 9.81296 2L3.42815 2.01865C3.07865 2.01959 2.78612 2.31204 2.78551 2.66172L2.78723 9.23189C2.78723 9.34619 2.81765 9.45842 2.87532 9.55708L4.41025 12.1819L4.41927 23.0498L4.05593 23.0488C1.54647 23.056 1.2267 26.9274 3.69447 27.3577L3.67351 40.2067C3.66792 44.1424 9.57964 44.1124 9.58497 40.2219L9.60602 27.3351C10.5832 27.1437 11.3245 26.2647 11.3242 25.2138V25.2138ZM4.075 4.30596L4.07475 3.30582L9.17041 3.29087L9.17066 4.32968L4.075 4.30596ZM6.63706 41.9472C5.71864 41.9472 4.96128 41.1086 4.96257 40.2088L4.98354 27.3868L8.31688 27.3771L8.29591 40.2201C8.29462 41.1697 7.5504 41.9446 6.63706 41.9472V41.9472ZM9.20891 26.0853L4.05661 26.1004C3.01428 26.1004 3.0233 24.3409 4.0561 24.338L9.21183 24.3515C10.2461 24.3515 10.2535 26.0822 9.20891 26.0853V26.0853Z" fill="#242729"/>
<path d="M43.2366 38.5329L43.2353 35.6831C43.2334 31.0044 41.1205 26.6389 37.4386 23.7061C37.071 23.4132 36.4505 23.3834 36.0524 23.64C34.6458 22.685 33.1047 21.9922 31.4573 21.5755C31.5223 21.2297 31.4522 20.7538 31.1098 20.5759C29.0593 19.5106 26.6114 19.5114 24.5619 20.5786C24.2196 20.7568 24.15 21.2333 24.2153 21.5791C23.4594 21.7709 22.7258 22.0207 22.0173 22.3275L22.0805 14.7387C24.7066 14.0874 26.0935 12.3907 26.101 9.80471C26.1093 6.94042 24.4091 3.64223 22.1461 2.13299C21.599 1.91153 21.2649 2.08959 21.1439 2.66735L21.1283 8.02435C21.1048 8.31249 20.9516 8.47114 20.6689 8.50035L17.9506 8.48678C17.6966 8.48549 17.4906 8.26875 17.4913 8.00346L17.5069 2.64638C17.3898 2.06897 17.0574 1.88859 16.5095 2.10524C14.2369 3.59247 12.5168 6.8745 12.5084 9.73949C12.501 12.3231 13.8765 14.0326 16.4955 14.7103L16.4243 25.4125C13.8735 28.2155 12.4476 31.8502 12.4492 35.696L12.4504 38.5386C9.90892 39.3145 10.4004 43.2052 13.1175 43.2052C15.0186 43.2052 16.7964 43.7704 18.4559 44.6616C20.1223 45.5372 21.9987 46 23.8823 46H23.8872L31.806 45.9967C33.6915 45.9958 35.5692 45.5315 37.2362 44.6538C38.8942 43.7524 40.671 43.1936 42.5724 43.1929C45.2526 43.1918 45.8204 39.2876 43.2366 38.5329V38.5329ZM35.5107 24.8318L35.5139 32.3906C35.5141 32.7466 35.8026 33.0349 36.1584 33.0349H36.1587C36.5147 33.0347 36.8031 32.7461 36.803 32.3901L36.7998 24.8472C40.0715 27.5322 41.9445 31.4696 41.9463 35.6837L41.9476 38.4321H36.8056L36.8044 35.8161C36.8042 35.4601 36.5157 35.1718 36.1599 35.1718C36.1598 35.1718 36.1597 35.1718 36.1596 35.1718C35.8036 35.172 35.5152 35.4606 35.5153 35.8166L35.5165 38.4322H31.4645L31.458 22.9093C32.9108 23.3148 34.2698 23.9595 35.5107 24.8318V24.8318ZM30.1683 21.5537L30.1755 38.432H25.5115L25.5044 21.5556C26.9889 20.904 28.6832 20.9034 30.1683 21.5537V21.5537ZM24.2224 38.4321H20.1705L20.1648 24.8383C21.3916 23.9742 22.7712 23.3174 24.2159 22.9128L24.2224 38.4321ZM13.7976 9.74327C13.8033 7.75957 14.8061 5.47381 16.2139 4.02198L16.2024 7.99977C16.1995 8.97439 16.981 9.77111 17.9443 9.77592L20.6626 9.7895C21.6023 9.7895 22.4148 8.96553 22.4175 8.02813L22.4291 4.05507C23.8285 5.52142 24.8179 7.81724 24.812 9.8011C24.8059 11.9128 23.6646 13.1503 21.3229 13.5842C21.0193 13.6404 20.7983 13.9038 20.7957 14.2125L20.7229 22.9659C20.3473 23.1754 19.9805 23.403 19.622 23.6469C19.2238 23.3907 18.6032 23.4208 18.2359 23.7142C18.0606 23.8541 17.89 23.9982 17.7218 24.1446L17.788 14.2008C17.79 13.891 17.5714 13.6233 17.2671 13.564C14.9263 13.1061 13.7914 11.8564 13.7976 9.74327V9.74327ZM18.8756 24.8547L18.8814 38.432H13.7394L13.7382 35.6955C13.7366 31.4815 15.6061 27.5425 18.8756 24.8547ZM43.3678 41.5664C43.1578 41.7838 42.875 41.9036 42.5718 41.9038C40.4642 41.9047 38.4783 42.5236 36.6356 43.5132C35.153 44.2939 33.4828 44.707 31.8055 44.7076L23.8867 44.7109C23.8851 44.7109 23.8839 44.7109 23.8823 44.7109C22.2068 44.7109 20.5377 44.2993 19.0555 43.5205C17.2701 42.5657 15.1789 41.8016 13.1175 41.9162C11.6733 41.9162 11.7014 39.7217 13.1625 39.7211H19.5262H24.8671H30.8201H36.1611H42.5249C43.4336 39.7753 44.0774 40.832 43.3678 41.5664V41.5664Z" fill="#242729"/>
</svg>
