<svg width="48" height="48" viewBox="0 0 48 48" fill="none" xmlns="http://www.w3.org/2000/svg">
<path d="M44.6398 21.6903L43.3968 16.7182C43.7366 16.646 43.9916 16.3445 43.9916 15.9833V15.1817C43.9916 13.4411 42.5755 12.0251 40.8351 12.0251H35.1733V10.3715C35.1733 9.51505 34.4766 8.8183 33.6201 8.8183H4.75987C3.90337 8.8183 3.20662 9.51505 3.20662 10.3715V24C3.20662 24.415 3.54309 24.7516 3.95822 24.7516C4.37325 24.7516 4.70981 24.4151 4.70981 24V10.3715C4.70981 10.344 4.73222 10.3215 4.75987 10.3215H33.62C33.6476 10.3215 33.67 10.3441 33.67 10.3715V24.0002C33.67 24.4152 34.0065 24.7518 34.4216 24.7518C34.8367 24.7518 35.1732 24.4153 35.1732 24.0002V23.1482H44.0391C44.0398 23.1482 44.0404 23.1484 44.041 23.1484C44.0418 23.1484 44.0424 23.1483 44.0431 23.1483C45.1341 23.149 46.0604 23.8651 46.3786 24.8518H44.0416C43.6266 24.8518 43.29 25.1883 43.29 25.6034V27.2067C43.29 28.5052 44.3464 29.5616 45.6449 29.5616H46.4967V32.8684H44.5315C43.886 31.0043 42.114 29.6617 40.0332 29.6617C37.9524 29.6617 36.1804 31.0043 35.5349 32.8684H35.173V27.2066C35.173 26.7916 34.8366 26.455 34.4214 26.455C34.0064 26.455 33.6698 26.7915 33.6698 27.2066V32.8683H18.0766C17.431 31.0041 15.6591 29.6615 13.5783 29.6615C11.4975 29.6615 9.72544 31.0041 9.07997 32.8683H4.75987C4.73222 32.8683 4.70981 32.8457 4.70981 32.8182V31.1647H7.96659C8.38162 31.1647 8.71819 30.8283 8.71819 30.4131C8.71819 29.998 8.38172 29.6615 7.96659 29.6615H3.95878C3.95859 29.6615 3.9585 29.6615 3.95831 29.6615C3.95813 29.6615 3.95803 29.6615 3.95784 29.6615H0.751594C0.336563 29.6615 0 29.998 0 30.4131C0 30.8283 0.336469 31.1647 0.751594 31.1647H3.20672V32.8182C3.20672 33.6747 3.90347 34.3714 4.75997 34.3714H8.81972C8.81953 34.3881 8.81841 34.4048 8.81841 34.4215C8.81841 37.046 10.9538 39.1814 13.5783 39.1814C16.2028 39.1814 18.3382 37.046 18.3382 34.4215C18.3382 34.4048 18.337 34.3881 18.3368 34.3714H35.2747C35.2745 34.3881 35.2733 34.4048 35.2733 34.4215C35.2733 37.046 37.4087 39.1814 40.0332 39.1814C42.6577 39.1814 44.7931 37.046 44.7931 34.4215C44.7931 34.4048 44.792 34.3881 44.7918 34.3714H47.2483C47.6633 34.3714 47.9999 34.035 47.9999 33.6198V25.6032C48 23.6239 46.5397 21.9795 44.6398 21.6903ZM35.1733 13.5282H40.8351C41.7468 13.5282 42.4885 14.27 42.4885 15.1817V15.2317H35.1733V13.5282ZM35.1733 21.6451V16.7348H41.8516L43.0792 21.6451H35.1733ZM13.5783 37.6785C11.7825 37.6785 10.3215 36.2176 10.3215 34.4217C10.3215 32.6258 11.7825 31.1649 13.5783 31.1649C15.3741 31.1649 16.8351 32.6258 16.8351 34.4217C16.8351 36.2176 15.3741 37.6785 13.5783 37.6785ZM40.0334 37.6785C38.2376 37.6785 36.7766 36.2176 36.7766 34.4217C36.7766 32.6258 38.2376 31.1649 40.0334 31.1649C41.8292 31.1649 43.2902 32.6258 43.2902 34.4217C43.2902 36.2176 41.8292 37.6785 40.0334 37.6785ZM46.4969 28.0584H45.6451C45.1754 28.0584 44.7933 27.6763 44.7933 27.2066V26.3548H46.4968V28.0584H46.4969Z" fill="#242729"/>
<path d="M13.5783 32.8685C12.7218 32.8685 12.025 33.5652 12.025 34.4217C12.025 35.2782 12.7218 35.975 13.5783 35.975C14.4348 35.975 15.1315 35.2782 15.1315 34.4217C15.1315 33.5652 14.4348 32.8685 13.5783 32.8685Z" fill="#242729"/>
<path d="M40.0334 32.8685C39.1769 32.8685 38.4802 33.5652 38.4802 34.4217C38.4802 35.2782 39.1769 35.975 40.0334 35.975C40.8899 35.975 41.5867 35.2782 41.5867 34.4217C41.5867 33.5652 40.8899 32.8685 40.0334 32.8685Z" fill="#242729"/>
<path d="M31.215 29.6618H19.9916C19.5766 29.6618 19.2401 29.9983 19.2401 30.4134C19.2401 30.8286 19.5765 31.165 19.9916 31.165H31.215C31.6301 31.165 31.9666 30.8286 31.9666 30.4134C31.9666 29.9983 31.6301 29.6618 31.215 29.6618Z" fill="#242729"/>
<path d="M11.975 26.4551H2.35493C1.93989 26.4551 1.60333 26.7916 1.60333 27.2067C1.60333 27.6219 1.9398 27.9583 2.35493 27.9583H11.975C12.39 27.9583 12.7266 27.6219 12.7266 27.2067C12.7266 26.7916 12.39 26.4551 11.975 26.4551Z" fill="#242729"/>
<path d="M19.19 12.8267C15.2392 12.8267 12.025 16.0409 12.025 19.9916C12.025 23.9423 15.2392 27.1566 19.19 27.1566C23.1407 27.1566 26.3549 23.9423 26.3549 19.9916C26.3549 16.0409 23.1407 12.8267 19.19 12.8267ZM19.19 25.6535C16.0681 25.6535 13.5282 23.1136 13.5282 19.9917C13.5282 16.8698 16.0681 14.33 19.19 14.33C22.3118 14.33 24.8517 16.8698 24.8517 19.9917C24.8517 23.1136 22.3118 25.6535 19.19 25.6535Z" fill="#242729"/>
<path d="M22.1264 21.8652L19.9415 19.6804V16.785C19.9415 16.37 19.6051 16.0334 19.1899 16.0334C18.7748 16.0334 18.4384 16.3699 18.4384 16.785V19.9917C18.4384 20.191 18.5175 20.3821 18.6585 20.5231L21.0634 22.9281C21.2102 23.0748 21.4025 23.1482 21.5948 23.1482C21.7871 23.1482 21.9796 23.0749 22.1262 22.9281C22.4199 22.6345 22.4199 22.1588 22.1264 21.8652Z" fill="#242729"/>
</svg>
