<svg width="48" height="48" viewBox="0 0 48 48" fill="none" xmlns="http://www.w3.org/2000/svg">
<path d="M41.0578 33.0803C40.8157 32.98 40.5371 33.0354 40.3517 33.2207L33.2713 40.3011C33.0861 40.4865 33.0306 40.7651 33.131 41.0072C33.2312 41.2494 33.4676 41.4072 33.7296 41.4072H40.81C41.1678 41.4072 41.4579 41.1171 41.4579 40.7593V33.6788C41.4578 33.4168 41.2999 33.1806 41.0578 33.0803ZM35.2935 40.1114L40.1619 35.243V40.1114H35.2935Z" fill="#242729"/>
<path d="M45.7416 22.6954C45.4995 22.5951 45.2209 22.6505 45.0355 22.8358L43.0951 24.7762V11.5828C43.0951 11.2249 42.805 10.9349 42.4472 10.9349H37.4691L39.2762 9.12783C39.2764 9.12757 39.2767 9.12722 39.277 9.12697L41.0181 7.38579C41.3912 7.01274 41.5966 6.51649 41.5966 5.98886C41.5966 5.46123 41.3912 4.96516 41.0181 4.59194L39.0047 2.5785C38.6316 2.20545 38.1354 2 37.6078 2C37.0801 2 36.584 2.20545 36.2108 2.5785L34.4688 4.32054L32.3638 6.42554L27.8545 10.9348H7.74358V4.52521C7.74358 4.16733 7.45347 3.87731 7.09568 3.87731C4.28596 3.87748 2 6.16327 2 8.97316V36.4915C2 36.5393 2.00552 36.5859 2.01535 36.6307C2.10484 37.8229 2.62065 38.9307 3.48271 39.7716C4.40416 40.6703 5.62056 41.1653 6.9079 41.1653H26.7059L22.9772 44.894C22.792 45.0793 22.7365 45.3579 22.8368 45.6001C22.9371 45.8421 23.1734 46 23.4354 46H45.4937C45.8515 46 46.1416 45.71 46.1416 45.3521V23.294C46.1416 23.032 45.9836 22.7957 45.7416 22.6954ZM37.1273 3.49486C37.3921 3.22984 37.8236 3.22984 38.0885 3.49486L40.102 5.50839C40.367 5.77333 40.367 6.20466 40.102 6.46968L38.8182 7.75358L35.8433 4.77876L37.1273 3.49486ZM34.927 5.69505L37.9018 8.66977L36.713 9.85858L33.7384 6.88385L34.927 5.69505ZM44.8459 30.5741H43.6506C43.2927 30.5741 43.0027 30.8641 43.0027 31.222C43.0027 31.5798 43.2927 31.8699 43.6506 31.8699H44.8459V33.8223H43.6506C43.2927 33.8223 43.0027 34.1123 43.0027 34.4702C43.0027 34.828 43.2927 35.1181 43.6506 35.1181H44.8459V37.0704H43.6506C43.2927 37.0704 43.0027 37.3604 43.0027 37.7183C43.0027 38.0762 43.2927 38.3662 43.6506 38.3662H44.8459V40.3186H43.6506C43.2927 40.3186 43.0027 40.6087 43.0027 40.9665C43.0027 41.3244 43.2927 41.6144 43.6506 41.6144H44.8459V44.7045H24.9995L31.5438 38.1602C31.7969 37.9071 31.7969 37.497 31.5438 37.2439C31.5148 37.2149 31.4835 37.1897 31.4509 37.1673C31.1986 36.9945 30.8515 37.0199 30.6274 37.2439L28.0017 39.8697H6.90799C4.943 39.8697 3.36115 38.3356 3.2989 36.3741C3.30261 36.251 3.31218 36.1289 3.32752 36.0082C3.32761 36.0075 3.3277 36.0068 3.32778 36.0062C3.33502 35.9488 3.34373 35.8918 3.35365 35.835C3.35477 35.8286 3.35597 35.8221 3.35709 35.8156C3.36615 35.765 3.37632 35.7147 3.38744 35.6645C3.39055 35.6505 3.39382 35.6366 3.3971 35.6227C3.40693 35.5803 3.41753 35.5381 3.42891 35.4961C3.43512 35.4734 3.44158 35.4509 3.44822 35.4282C3.45771 35.3952 3.46753 35.3624 3.47797 35.3299C3.4884 35.2974 3.49952 35.2652 3.51081 35.2331C3.51866 35.2106 3.52642 35.1881 3.53487 35.1657C3.55064 35.1233 3.56737 35.0813 3.58461 35.0397C3.58953 35.0277 3.59436 35.0156 3.59944 35.0036C3.6216 34.9518 3.64462 34.9007 3.66893 34.8502C3.66997 34.848 3.67091 34.8459 3.67195 34.8437C4.17871 33.795 5.15336 33.0132 6.32303 32.7705C6.3263 32.7699 6.32958 32.7691 6.33286 32.7684C6.38648 32.7574 6.44062 32.748 6.49511 32.7393C6.50416 32.7379 6.51322 32.7361 6.52244 32.7347C6.57167 32.7272 6.62142 32.7213 6.67116 32.7157C6.68513 32.7142 6.69901 32.712 6.71306 32.7106C6.76108 32.7058 6.80953 32.7026 6.85799 32.6996C6.87333 32.6986 6.88868 32.697 6.90402 32.6962C6.96748 32.693 7.03145 32.6914 7.09568 32.6914C7.45347 32.6914 7.74358 32.4014 7.74358 32.0435V27.3458C7.74358 26.9879 7.45347 26.6979 7.09568 26.6979C6.73789 26.6979 6.44778 26.9879 6.44778 27.3458V31.4364C5.35372 31.5748 4.33821 32.0627 3.53745 32.8447C3.45322 32.9269 3.37339 33.0125 3.29562 33.0994V8.97316C3.29562 7.09878 4.66005 5.53684 6.44769 5.22837V11.5828V24.7543V24.7544C6.44769 25.1122 6.7378 25.4023 7.09559 25.4023C7.45338 25.4023 7.74349 25.1122 7.74349 24.7544V24.7543V12.2307H26.5588L22.9772 15.8123C22.7241 16.0655 22.7241 16.4756 22.9772 16.7286C23.2302 16.9816 23.6404 16.9816 23.8934 16.7286L28.5811 12.0409C28.5812 12.0407 28.5813 12.0406 28.5815 12.0405L32.8219 7.80005L35.7966 10.7749L35.4476 11.1239C35.4473 11.1241 35.447 11.1244 35.4467 11.1246L22.3829 24.1886L19.4082 21.2139L21.9832 18.6389C22.2362 18.3857 22.2362 17.9756 21.9832 17.7226C21.7302 17.4696 21.32 17.4696 21.067 17.7226L18.0337 20.7558C18.0175 20.772 18.0024 20.7891 17.9881 20.8067C17.9834 20.8126 17.9792 20.8189 17.9747 20.825C17.9655 20.8372 17.9566 20.8494 17.9482 20.8622C17.9435 20.8696 17.9392 20.8772 17.9347 20.8848C17.9275 20.8969 17.9206 20.9091 17.9143 20.9216C17.9102 20.9297 17.9065 20.9379 17.9027 20.9464C17.8969 20.9591 17.8916 20.972 17.8867 20.9849C17.8849 20.9895 17.8827 20.9938 17.881 20.9984L16.6188 24.5741L15.7582 27.0121C15.7468 27.0446 15.7386 27.0775 15.7325 27.1107H13.5779C13.2201 27.1107 12.93 27.4007 12.93 27.7586C12.93 28.1165 13.2201 28.4065 13.5779 28.4065H31.5202C31.8781 28.4065 32.1681 28.1165 32.1681 27.7586C32.1681 27.4007 31.8781 27.1107 31.5202 27.1107H18.6473L22.5985 25.7159C22.6018 25.7147 22.6049 25.7131 22.6082 25.7119C22.6235 25.7062 22.6386 25.6998 22.6535 25.693C22.6595 25.6902 22.6654 25.6876 22.6712 25.6848C22.6867 25.677 22.702 25.6685 22.717 25.6594C22.7218 25.6564 22.7268 25.6538 22.7315 25.6507C22.7471 25.6407 22.7623 25.6298 22.7772 25.6182C22.7809 25.6154 22.7848 25.6129 22.7884 25.61C22.8065 25.5955 22.8241 25.5799 22.8409 25.5631L36.1733 12.2308H41.7992V26.0721L32.5316 35.3398C32.2785 35.5929 32.2785 36.0031 32.5316 36.2561C32.5473 36.2719 32.5638 36.2867 32.5808 36.3006C32.6996 36.3974 32.8447 36.4459 32.9897 36.4459C33.1347 36.4459 33.2799 36.3974 33.3986 36.3006C33.4156 36.2868 33.4321 36.2719 33.4479 36.2561C33.4481 36.2558 33.4478 36.2561 33.4481 36.2558L44.8459 24.8579V30.5741ZM21.1979 24.836L19.342 25.4912L18.1056 24.2547L18.7607 22.3988L21.1979 24.836Z" fill="#242729"/>
</svg>
