<svg width="48" height="48" viewBox="0 0 48 48" fill="none" xmlns="http://www.w3.org/2000/svg">
<path d="M16.1987 15.0446L17.6116 15.1902V21.906C17.6116 22.9153 18.4442 23.7365 19.4677 23.7365H20.4555C21.4789 23.7365 22.3115 22.9154 22.3115 21.906V18.6899L23.4187 16.9576L27.2738 18.9049V19.2877C27.2738 20.534 28.3019 21.5479 29.5656 21.5479C30.8293 21.5479 31.8574 20.5341 31.8574 19.2877V15.6878C33.7723 15.386 35.2403 13.7462 35.2403 11.774C35.2403 9.80179 33.7723 8.16191 31.8574 7.86014V4.2603C31.8574 3.01406 30.8293 2 29.5656 2C28.4506 2 27.5194 2.78969 27.3157 3.83164L20.5114 7.2687L16.199 7.71308C14.2899 7.90972 12.8502 9.48563 12.8502 11.3789C12.85 13.272 14.2896 14.848 16.1987 15.0446V15.0446ZM21.064 18.1421C20.996 18.2484 20.96 18.3717 20.96 18.4974V21.906C20.96 22.1804 20.7337 22.4036 20.4554 22.4036H19.4676C19.1894 22.4036 18.963 22.1804 18.963 21.906V15.3294L20.5111 15.4889L22.2108 16.3475L21.064 18.1421ZM33.8886 11.774C33.8886 13.0085 33.0219 14.0466 31.8572 14.3288V9.21915C33.0219 9.50136 33.8886 10.5395 33.8886 11.774V11.774ZM16.3392 9.03876L20.7771 8.5815C20.8601 8.57297 20.9406 8.54942 21.0149 8.51192L27.2736 5.35042V8.14058C27.2736 8.50872 27.5761 8.80702 27.9494 8.80702C28.3227 8.80702 28.6251 8.50872 28.6251 8.14058V4.2603C28.6251 3.74892 29.0469 3.33288 29.5655 3.33288C30.084 3.33288 30.5058 3.74892 30.5058 4.2603V19.2876C30.5058 19.7989 30.084 20.215 29.5655 20.215C29.0469 20.215 28.6251 19.7989 28.6251 19.2876V10.9808C28.6251 10.6126 28.3227 10.3143 27.9494 10.3143C27.5761 10.3143 27.2736 10.6126 27.2736 10.9808V17.4073L21.0149 14.2459C20.9406 14.2084 20.86 14.1847 20.777 14.1763L16.3391 13.719C15.1204 13.5935 14.2013 12.5875 14.2013 11.3789C14.2013 10.1704 15.1205 9.16432 16.3392 9.03876V9.03876Z" fill="#242729"/>
<path d="M46.0949 40.011H45.1655V15.3175C45.1655 14.0178 44.0934 12.9604 42.7754 12.9604H36.9679C36.5947 12.9604 36.2922 13.2587 36.2922 13.6268C36.2922 13.9949 36.5947 14.2932 36.9679 14.2932H42.7754C43.3481 14.2932 43.8141 14.7527 43.8141 15.3175V40.011H4.18593V15.3175C4.18593 14.7527 4.65191 14.2932 5.22457 14.2932H11.2894C11.6627 14.2932 11.9651 13.9949 11.9651 13.6268C11.9651 13.2587 11.6627 12.9604 11.2894 12.9604H5.22466C3.90672 12.9604 2.83456 14.0178 2.83456 15.3175V40.011H1.90512C1.40607 40.011 1 40.4114 1 40.9036V42.1705C1 44.2821 2.74185 46 4.88292 46H43.1171C45.2581 46 47 44.2821 47 42.1705V40.9036C47 40.4114 46.5939 40.011 46.0949 40.011ZM45.6485 42.1705C45.6485 43.5471 44.513 44.6671 43.1171 44.6671H4.88292C3.48705 44.6671 2.35146 43.5471 2.35146 42.1705V41.3439H45.6485V42.1705Z" fill="#242729"/>
<path d="M36.0043 37.3452C35.631 37.3452 35.3285 37.6435 35.3285 38.0117C35.3285 38.3798 35.631 38.6781 36.0043 38.6781H41.7869C42.1601 38.6781 42.4626 38.3798 42.4626 38.0117V16.2925C42.4626 15.9244 42.1601 15.6261 41.7869 15.6261H35.16C34.7867 15.6261 34.4842 15.9244 34.4842 16.2925C34.4842 16.6607 34.7867 16.959 35.16 16.959H41.1111V37.3453H36.0043V37.3452Z" fill="#242729"/>
<path d="M13.6829 16.959C14.0562 16.959 14.3586 16.6607 14.3586 16.2925C14.3586 15.9244 14.0562 15.6261 13.6829 15.6261H6.21311C5.83984 15.6261 5.53738 15.9244 5.53738 16.2925V38.0118C5.53738 38.3799 5.83984 38.6782 6.21311 38.6782H33.1245C33.4977 38.6782 33.8002 38.3799 33.8002 38.0118C33.8002 37.6436 33.4977 37.3453 33.1245 37.3453H6.88884V16.959H13.6829Z" fill="#242729"/>
<path d="M34.7337 32.8555V29.7163C34.7337 28.9417 34.0946 28.3114 33.3092 28.3114H21.0801C20.7068 28.3114 20.4043 28.6097 20.4043 28.9778C20.4043 29.346 20.7068 29.6443 21.0801 29.6443H33.3092C33.3494 29.6443 33.3822 29.6765 33.3822 29.7163V32.8555C33.3822 32.8952 33.3495 32.9275 33.3092 32.9275H14.6907C14.6504 32.9275 14.6176 32.8953 14.6176 32.8555V29.7163C14.6176 29.6766 14.6504 29.6443 14.6907 29.6443H18.2004C18.5736 29.6443 18.8761 29.346 18.8761 28.9778C18.8761 28.6097 18.5736 28.3114 18.2004 28.3114H14.6907C13.9053 28.3114 13.2662 28.9417 13.2662 29.7163V32.8555C13.2662 33.6301 13.9053 34.2604 14.6907 34.2604H33.3092C34.0946 34.2604 34.7337 33.6301 34.7337 32.8555Z" fill="#242729"/>
</svg>
